<svg width="1505" height="723" viewBox="0 0 1505 723" fill="none" xmlns="http://www.w3.org/2000/svg">
<g clip-path="url(#clip0_743_57)">
<rect width="1505" height="723" fill="white"/>
<path d="M392.33 137L417.098 20.36H432.794L457.706 137H442.298L436.97 107.624H413.21L407.594 137H392.33ZM415.37 95.96H434.81L425.018 43.4L415.37 95.96ZM468.245 164.36V53.768H483.653V60.392C485.477 58.28 487.685 56.456 490.277 54.92C492.869 53.384 495.941 52.616 499.493 52.616C503.813 52.616 507.221 53.768 509.717 56.072C512.309 58.28 514.229 61.112 515.477 64.568C516.725 67.928 517.541 71.384 517.925 74.936C518.309 78.392 518.501 81.368 518.501 83.864V104.024C518.501 109.88 517.925 115.448 516.773 120.728C515.621 125.912 513.509 130.136 510.437 133.4C507.461 136.568 503.237 138.152 497.765 138.152C494.789 138.152 492.149 137.432 489.845 135.992C487.541 134.456 485.477 132.728 483.653 130.808V164.36H468.245ZM494.741 126.056C497.429 126.056 499.349 125.096 500.501 123.176C501.653 121.16 502.373 118.472 502.661 115.112C502.949 111.752 503.093 108.056 503.093 104.024V83.864C503.093 80.408 502.901 77.24 502.517 74.36C502.133 71.384 501.317 69.032 500.069 67.304C498.821 65.576 496.853 64.712 494.165 64.712C492.149 64.712 490.229 65.144 488.405 66.008C486.581 66.872 484.997 67.88 483.653 69.032V122.312C485.093 123.368 486.725 124.28 488.549 125.048C490.373 125.72 492.437 126.056 494.741 126.056ZM532.51 164.36V53.768H547.918V60.392C549.742 58.28 551.95 56.456 554.542 54.92C557.134 53.384 560.206 52.616 563.758 52.616C568.078 52.616 571.486 53.768 573.982 56.072C576.574 58.28 578.494 61.112 579.742 64.568C580.99 67.928 581.806 71.384 582.19 74.936C582.574 78.392 582.766 81.368 582.766 83.864V104.024C582.766 109.88 582.19 115.448 581.038 120.728C579.886 125.912 577.774 130.136 574.702 133.4C571.726 136.568 567.502 138.152 562.03 138.152C559.054 138.152 556.414 137.432 554.11 135.992C551.806 134.456 549.742 132.728 547.918 130.808V164.36H532.51ZM559.006 126.056C561.694 126.056 563.614 125.096 564.766 123.176C565.918 121.16 566.638 118.472 566.926 115.112C567.214 111.752 567.358 108.056 567.358 104.024V83.864C567.358 80.408 567.166 77.24 566.782 74.36C566.398 71.384 565.582 69.032 564.334 67.304C563.086 65.576 561.118 64.712 558.43 64.712C556.414 64.712 554.494 65.144 552.67 66.008C550.846 66.872 549.262 67.88 547.918 69.032V122.312C549.358 123.368 550.99 124.28 552.814 125.048C554.638 125.72 556.702 126.056 559.006 126.056ZM630.978 137V20.36H676.05V32.024H647.25V70.904H669.57V82.424H647.25V137H630.978ZM708.972 138.152C702.444 138.152 697.404 136.904 693.852 134.408C690.3 131.816 687.804 128.072 686.364 123.176C685.02 118.184 684.348 112.088 684.348 104.888V85.88C684.348 78.488 685.068 72.344 686.508 67.448C687.948 62.552 690.444 58.856 693.996 56.36C697.644 53.864 702.636 52.616 708.972 52.616C715.98 52.616 721.116 54.056 724.38 56.936C727.74 59.816 729.948 63.992 731.004 69.464C732.06 74.84 732.588 81.32 732.588 88.904V95.672H699.756V112.376C699.756 115.736 700.044 118.472 700.62 120.584C701.292 122.696 702.3 124.28 703.644 125.336C705.084 126.296 706.908 126.776 709.116 126.776C711.42 126.776 713.148 126.248 714.3 125.192C715.548 124.04 716.364 122.456 716.748 120.44C717.228 118.328 717.468 115.88 717.468 113.096V108.056H732.444V111.224C732.444 119.576 730.668 126.152 727.116 130.952C723.564 135.752 717.516 138.152 708.972 138.152ZM699.756 87.32H717.468V79.832C717.468 76.376 717.276 73.496 716.892 71.192C716.508 68.792 715.692 67.016 714.444 65.864C713.292 64.616 711.42 63.992 708.828 63.992C706.332 63.992 704.412 64.568 703.068 65.72C701.82 66.872 700.956 68.84 700.476 71.624C699.996 74.312 699.756 78.056 699.756 82.856V87.32ZM761.518 138.152C758.254 138.152 755.374 137.24 752.878 135.416C750.382 133.496 748.414 131.096 746.974 128.216C745.534 125.24 744.814 122.12 744.814 118.856C744.814 113.672 745.678 109.304 747.406 105.752C749.134 102.2 751.486 99.224 754.462 96.824C757.534 94.328 761.038 92.168 764.974 90.344C769.006 88.52 773.23 86.744 777.646 85.016V79.112C777.646 75.752 777.454 72.968 777.07 70.76C776.686 68.552 775.87 66.92 774.622 65.864C773.47 64.712 771.694 64.136 769.294 64.136C767.182 64.136 765.454 64.616 764.11 65.576C762.862 66.536 761.95 67.928 761.374 69.752C760.798 71.48 760.51 73.544 760.51 75.944V80.12L745.246 79.544C745.438 70.328 747.55 63.56 751.582 59.24C755.614 54.824 761.854 52.616 770.302 52.616C778.558 52.616 784.414 54.872 787.87 59.384C791.326 63.896 793.054 70.424 793.054 78.968V116.984C793.054 119.576 793.102 122.072 793.198 124.472C793.39 126.872 793.582 129.128 793.774 131.24C794.062 133.256 794.302 135.176 794.494 137H780.382C780.094 135.464 779.71 133.544 779.23 131.24C778.846 128.84 778.558 126.68 778.366 124.76C777.406 128.024 775.534 131.096 772.75 133.976C770.062 136.76 766.318 138.152 761.518 138.152ZM767.566 124.904C769.102 124.904 770.542 124.472 771.886 123.608C773.23 122.744 774.43 121.784 775.486 120.728C776.542 119.576 777.262 118.664 777.646 117.992V94.376C775.246 95.72 772.99 97.064 770.878 98.408C768.766 99.752 766.894 101.192 765.262 102.728C763.726 104.168 762.478 105.848 761.518 107.768C760.654 109.592 760.222 111.704 760.222 114.104C760.222 117.464 760.846 120.104 762.094 122.024C763.342 123.944 765.166 124.904 767.566 124.904ZM828.905 138.152C824.585 138.152 821.081 137.336 818.393 135.704C815.801 134.072 813.881 131.768 812.633 128.792C811.481 125.816 810.905 122.312 810.905 118.28V63.992H802.121V53.768H810.905V29.432H826.313V53.768H839.705V63.992H826.313V117.272C826.313 120.536 826.841 122.888 827.897 124.328C828.953 125.672 830.969 126.344 833.945 126.344C834.713 126.344 835.577 126.296 836.537 126.2C837.593 126.104 838.601 126.008 839.561 125.912V137.288C837.641 137.576 835.865 137.768 834.233 137.864C832.601 138.056 830.825 138.152 828.905 138.152ZM862.978 138.152C859.714 138.152 857.17 137.288 855.346 135.56C853.522 133.832 852.226 131.672 851.458 129.08C850.786 126.488 850.45 123.848 850.45 121.16V53.768H865.858V116.552C865.858 119.528 866.29 121.88 867.154 123.608C868.018 125.24 869.794 126.056 872.482 126.056C874.21 126.056 875.986 125.576 877.81 124.616C879.73 123.56 881.554 122.312 883.282 120.872V53.768H898.69V137H883.282V128.792C880.594 131.384 877.522 133.592 874.066 135.416C870.706 137.24 867.01 138.152 862.978 138.152ZM914.88 137V53.768H930.288V65.576C933.36 60.488 936.432 57.08 939.504 55.352C942.576 53.624 945.648 52.76 948.72 52.76C949.104 52.76 949.44 52.76 949.728 52.76C950.112 52.76 950.592 52.808 951.168 52.904V69.896C950.016 69.416 948.672 69.032 947.136 68.744C945.696 68.36 944.208 68.168 942.672 68.168C940.272 68.168 938.064 68.744 936.048 69.896C934.128 70.952 932.208 73.064 930.288 76.232V137H914.88ZM983.754 138.152C977.226 138.152 972.186 136.904 968.634 134.408C965.082 131.816 962.586 128.072 961.146 123.176C959.802 118.184 959.13 112.088 959.13 104.888V85.88C959.13 78.488 959.85 72.344 961.29 67.448C962.73 62.552 965.226 58.856 968.778 56.36C972.426 53.864 977.418 52.616 983.754 52.616C990.762 52.616 995.898 54.056 999.162 56.936C1002.52 59.816 1004.73 63.992 1005.79 69.464C1006.84 74.84 1007.37 81.32 1007.37 88.904V95.672H974.538V112.376C974.538 115.736 974.826 118.472 975.402 120.584C976.074 122.696 977.082 124.28 978.426 125.336C979.866 126.296 981.69 126.776 983.898 126.776C986.202 126.776 987.93 126.248 989.082 125.192C990.33 124.04 991.146 122.456 991.53 120.44C992.01 118.328 992.25 115.88 992.25 113.096V108.056H1007.23V111.224C1007.23 119.576 1005.45 126.152 1001.9 130.952C998.346 135.752 992.298 138.152 983.754 138.152ZM974.538 87.32H992.25V79.832C992.25 76.376 992.058 73.496 991.674 71.192C991.29 68.792 990.474 67.016 989.226 65.864C988.074 64.616 986.202 63.992 983.61 63.992C981.114 63.992 979.194 64.568 977.85 65.72C976.602 66.872 975.738 68.84 975.258 71.624C974.778 74.312 974.538 78.056 974.538 82.856V87.32ZM1040.62 138.152C1033.8 138.152 1028.33 136.04 1024.2 131.816C1020.07 127.496 1017.72 121.832 1017.15 114.824L1029.96 110.936C1030.73 116.216 1032.03 120.2 1033.85 122.888C1035.67 125.48 1038.36 126.776 1041.91 126.776C1044.7 126.776 1046.81 126.008 1048.25 124.472C1049.69 122.84 1050.41 120.68 1050.41 117.992C1050.41 115.592 1049.88 113.432 1048.83 111.512C1047.77 109.592 1046.04 107.624 1043.64 105.608L1029.39 93.368C1026.51 90.872 1024.06 88.088 1022.04 85.016C1020.12 81.944 1019.16 77.96 1019.16 73.064C1019.16 68.648 1020.03 64.952 1021.75 61.976C1023.58 58.904 1026.07 56.6 1029.24 55.064C1032.51 53.432 1036.3 52.616 1040.62 52.616C1047.24 52.616 1052.28 54.776 1055.74 59.096C1059.29 63.32 1061.31 68.456 1061.79 74.504L1051.42 78.392C1051.03 75.512 1050.46 73.016 1049.69 70.904C1048.92 68.696 1047.87 67.016 1046.52 65.864C1045.18 64.616 1043.4 63.992 1041.19 63.992C1038.7 63.992 1036.68 64.856 1035.15 66.584C1033.71 68.216 1032.99 70.184 1032.99 72.488C1032.99 73.928 1033.27 75.368 1033.85 76.808C1034.52 78.152 1035.63 79.496 1037.16 80.84L1051.85 94.376C1053.87 96.2 1055.74 98.168 1057.47 100.28C1059.29 102.392 1060.78 104.792 1061.93 107.48C1063.08 110.168 1063.66 113.288 1063.66 116.84C1063.66 121.544 1062.7 125.48 1060.78 128.648C1058.86 131.816 1056.17 134.216 1052.71 135.848C1049.26 137.384 1045.23 138.152 1040.62 138.152Z" fill="#4A6C7C"/>
<path d="M29.8131 238V199.12H38.2611C41.1411 199.12 43.4131 199.568 45.0771 200.464C46.7731 201.328 47.9731 202.64 48.6771 204.4C49.4131 206.16 49.7811 208.352 49.7811 210.976V225.28C49.7811 228.032 49.4131 230.352 48.6771 232.24C47.9731 234.128 46.8051 235.568 45.1731 236.56C43.5731 237.52 41.4131 238 38.6931 238H29.8131ZM35.2371 234.112H38.3091C40.2931 234.112 41.7011 233.728 42.5331 232.96C43.3651 232.192 43.8611 231.072 44.0211 229.6C44.2131 228.128 44.3091 226.352 44.3091 224.272V211.648C44.3091 209.632 44.1811 208 43.9251 206.752C43.6691 205.504 43.1091 204.592 42.2451 204.016C41.3811 203.44 40.0211 203.152 38.1651 203.152H35.2371V234.112ZM55.0296 238V210.256H60.1656V238H55.0296ZM55.0296 206.128V200.752H60.1656V206.128H55.0296ZM67.2943 238V214.048H63.9823V210.256H67.2943V208.816C67.2943 207.088 67.4223 205.616 67.6783 204.4C67.9663 203.152 68.5423 202.192 69.4063 201.52C70.2703 200.848 71.5663 200.512 73.2943 200.512C73.9343 200.512 74.4943 200.544 74.9743 200.608C75.4863 200.64 76.0463 200.72 76.6543 200.848V204.592C76.3663 204.528 76.0463 204.48 75.6943 204.448C75.3423 204.384 75.0223 204.352 74.7343 204.352C73.7423 204.352 73.1023 204.688 72.8143 205.36C72.5583 206 72.4303 206.864 72.4303 207.952V210.256H76.6543V214.048H72.4303V238H67.2943ZM79.8223 238V214.048H76.5103V210.256H79.8223V208.816C79.8223 207.088 79.9503 205.616 80.2063 204.4C80.4943 203.152 81.0703 202.192 81.9343 201.52C82.7983 200.848 84.0943 200.512 85.8223 200.512C86.4623 200.512 87.0223 200.544 87.5023 200.608C88.0143 200.64 88.5743 200.72 89.1823 200.848V204.592C88.8943 204.528 88.5743 204.48 88.2223 204.448C87.8703 204.384 87.5503 204.352 87.2623 204.352C86.2703 204.352 85.6303 204.688 85.3423 205.36C85.0863 206 84.9583 206.864 84.9583 207.952V210.256H89.1823V214.048H84.9583V238H79.8223ZM99.6392 238.384C97.4632 238.384 95.7832 237.968 94.5992 237.136C93.4152 236.272 92.5832 235.024 92.1032 233.392C91.6552 231.728 91.4312 229.696 91.4312 227.296V220.96C91.4312 218.496 91.6712 216.448 92.1512 214.816C92.6312 213.184 93.4632 211.952 94.6472 211.12C95.8632 210.288 97.5272 209.872 99.6392 209.872C101.975 209.872 103.687 210.352 104.775 211.312C105.895 212.272 106.631 213.664 106.983 215.488C107.335 217.28 107.511 219.44 107.511 221.968V224.224H96.5672V229.792C96.5672 230.912 96.6632 231.824 96.8552 232.528C97.0792 233.232 97.4152 233.76 97.8632 234.112C98.3432 234.432 98.9512 234.592 99.6872 234.592C100.455 234.592 101.031 234.416 101.415 234.064C101.831 233.68 102.103 233.152 102.231 232.48C102.391 231.776 102.471 230.96 102.471 230.032V228.352H107.463V229.408C107.463 232.192 106.871 234.384 105.687 235.984C104.503 237.584 102.487 238.384 99.6392 238.384ZM96.5672 221.44H102.471V218.944C102.471 217.792 102.407 216.832 102.279 216.064C102.151 215.264 101.879 214.672 101.463 214.288C101.079 213.872 100.455 213.664 99.5912 213.664C98.7592 213.664 98.1192 213.856 97.6712 214.24C97.2552 214.624 96.9672 215.28 96.8072 216.208C96.6472 217.104 96.5672 218.352 96.5672 219.952V221.44ZM112.306 238V210.256H117.442V214.192C118.466 212.496 119.49 211.36 120.514 210.784C121.538 210.208 122.562 209.92 123.586 209.92C123.714 209.92 123.826 209.92 123.922 209.92C124.05 209.92 124.21 209.936 124.402 209.968V215.632C124.018 215.472 123.57 215.344 123.058 215.248C122.578 215.12 122.082 215.056 121.57 215.056C120.77 215.056 120.034 215.248 119.362 215.632C118.722 215.984 118.082 216.688 117.442 217.744V238H112.306ZM135.264 238.384C133.088 238.384 131.408 237.968 130.224 237.136C129.04 236.272 128.208 235.024 127.728 233.392C127.28 231.728 127.056 229.696 127.056 227.296V220.96C127.056 218.496 127.296 216.448 127.776 214.816C128.256 213.184 129.088 211.952 130.272 211.12C131.488 210.288 133.152 209.872 135.264 209.872C137.6 209.872 139.312 210.352 140.4 211.312C141.52 212.272 142.256 213.664 142.608 215.488C142.96 217.28 143.136 219.44 143.136 221.968V224.224H132.192V229.792C132.192 230.912 132.288 231.824 132.48 232.528C132.704 233.232 133.04 233.76 133.488 234.112C133.968 234.432 134.576 234.592 135.312 234.592C136.08 234.592 136.656 234.416 137.04 234.064C137.456 233.68 137.728 233.152 137.856 232.48C138.016 231.776 138.096 230.96 138.096 230.032V228.352H143.088V229.408C143.088 232.192 142.496 234.384 141.312 235.984C140.128 237.584 138.112 238.384 135.264 238.384ZM132.192 221.44H138.096V218.944C138.096 217.792 138.032 216.832 137.904 216.064C137.776 215.264 137.504 214.672 137.088 214.288C136.704 213.872 136.08 213.664 135.216 213.664C134.384 213.664 133.744 213.856 133.296 214.24C132.88 214.624 132.592 215.28 132.432 216.208C132.272 217.104 132.192 218.352 132.192 219.952V221.44ZM147.787 238V210.256H152.923V212.992C153.851 212.128 154.875 211.392 155.995 210.784C157.115 210.176 158.347 209.872 159.691 209.872C160.811 209.872 161.659 210.16 162.235 210.736C162.843 211.312 163.259 212.032 163.483 212.896C163.739 213.76 163.867 214.64 163.867 215.536V238H158.731V217.024C158.731 216.032 158.587 215.264 158.299 214.72C158.011 214.176 157.419 213.904 156.523 213.904C155.947 213.904 155.339 214.08 154.699 214.432C154.091 214.752 153.499 215.152 152.923 215.632V238H147.787ZM176.273 238.384C174.833 238.384 173.665 238.112 172.769 237.568C171.905 237.024 171.265 236.256 170.849 235.264C170.465 234.272 170.273 233.104 170.273 231.76V213.664H167.345V210.256H170.273V202.144H175.409V210.256H179.873V213.664H175.409V231.424C175.409 232.512 175.585 233.296 175.937 233.776C176.289 234.224 176.961 234.448 177.953 234.448C178.209 234.448 178.497 234.432 178.817 234.4C179.169 234.368 179.505 234.336 179.825 234.304V238.096C179.185 238.192 178.593 238.256 178.049 238.288C177.505 238.352 176.913 238.384 176.273 238.384ZM199.319 238V203.152H192.743V199.12H211.127V203.152H204.743V238H199.319ZM214.588 238V199.12H219.724V213.136C220.652 212.24 221.692 211.472 222.844 210.832C223.996 210.192 225.276 209.872 226.684 209.872C227.772 209.872 228.604 210.16 229.18 210.736C229.788 211.312 230.204 212.032 230.428 212.896C230.684 213.76 230.812 214.64 230.812 215.536V238H225.676V217.024C225.676 216.032 225.532 215.264 225.244 214.72C224.956 214.176 224.364 213.904 223.468 213.904C222.86 213.904 222.22 214.08 221.548 214.432C220.908 214.784 220.3 215.216 219.724 215.728V238H214.588ZM243.499 238.384C241.323 238.384 239.643 237.968 238.459 237.136C237.275 236.272 236.443 235.024 235.963 233.392C235.515 231.728 235.291 229.696 235.291 227.296V220.96C235.291 218.496 235.531 216.448 236.011 214.816C236.491 213.184 237.323 211.952 238.507 211.12C239.723 210.288 241.387 209.872 243.499 209.872C245.835 209.872 247.547 210.352 248.635 211.312C249.755 212.272 250.491 213.664 250.843 215.488C251.195 217.28 251.371 219.44 251.371 221.968V224.224H240.427V229.792C240.427 230.912 240.523 231.824 240.715 232.528C240.939 233.232 241.275 233.76 241.723 234.112C242.203 234.432 242.811 234.592 243.547 234.592C244.315 234.592 244.891 234.416 245.275 234.064C245.691 233.68 245.963 233.152 246.091 232.48C246.251 231.776 246.331 230.96 246.331 230.032V228.352H251.323V229.408C251.323 232.192 250.731 234.384 249.547 235.984C248.363 237.584 246.347 238.384 243.499 238.384ZM240.427 221.44H246.331V218.944C246.331 217.792 246.267 216.832 246.139 216.064C246.011 215.264 245.739 214.672 245.323 214.288C244.939 213.872 244.315 213.664 243.451 213.664C242.619 213.664 241.979 213.856 241.531 214.24C241.115 214.624 240.827 215.28 240.667 216.208C240.507 217.104 240.427 218.352 240.427 219.952V221.44ZM256.022 238V210.256H260.774V212.896C261.702 211.84 262.726 211.056 263.846 210.544C264.966 210.032 266.118 209.776 267.302 209.776C268.326 209.776 269.238 210.032 270.038 210.544C270.87 211.056 271.462 211.968 271.814 213.28C272.806 212.064 273.878 211.184 275.03 210.64C276.214 210.064 277.446 209.776 278.726 209.776C279.622 209.776 280.438 210 281.174 210.448C281.91 210.864 282.502 211.552 282.95 212.512C283.398 213.44 283.622 214.672 283.622 216.208V238H278.918V216.544C278.918 215.2 278.694 214.304 278.246 213.856C277.83 213.376 277.254 213.136 276.518 213.136C275.814 213.136 275.078 213.344 274.31 213.76C273.542 214.144 272.838 214.688 272.198 215.392C272.198 215.52 272.198 215.648 272.198 215.776C272.198 215.904 272.198 216.048 272.198 216.208V238H267.494V216.544C267.494 215.2 267.27 214.304 266.822 213.856C266.406 213.376 265.83 213.136 265.094 213.136C264.39 213.136 263.654 213.344 262.886 213.76C262.15 214.144 261.446 214.688 260.774 215.392V238H256.022ZM296.327 238.384C294.151 238.384 292.471 237.968 291.287 237.136C290.103 236.272 289.271 235.024 288.791 233.392C288.343 231.728 288.119 229.696 288.119 227.296V220.96C288.119 218.496 288.359 216.448 288.839 214.816C289.319 213.184 290.151 211.952 291.335 211.12C292.551 210.288 294.215 209.872 296.327 209.872C298.663 209.872 300.375 210.352 301.463 211.312C302.583 212.272 303.319 213.664 303.671 215.488C304.023 217.28 304.199 219.44 304.199 221.968V224.224H293.255V229.792C293.255 230.912 293.351 231.824 293.543 232.528C293.767 233.232 294.103 233.76 294.551 234.112C295.031 234.432 295.639 234.592 296.375 234.592C297.143 234.592 297.719 234.416 298.103 234.064C298.519 233.68 298.791 233.152 298.919 232.48C299.079 231.776 299.159 230.96 299.159 230.032V228.352H304.151V229.408C304.151 232.192 303.559 234.384 302.375 235.984C301.191 237.584 299.175 238.384 296.327 238.384ZM293.255 221.44H299.159V218.944C299.159 217.792 299.095 216.832 298.967 216.064C298.839 215.264 298.567 214.672 298.151 214.288C297.767 213.872 297.143 213.664 296.279 213.664C295.447 213.664 294.807 213.856 294.359 214.24C293.943 214.624 293.655 215.28 293.495 216.208C293.335 217.104 293.255 218.352 293.255 219.952V221.44ZM315.282 238.384C313.01 238.384 311.186 237.68 309.81 236.272C308.434 234.832 307.65 232.944 307.458 230.608L311.73 229.312C311.986 231.072 312.418 232.4 313.026 233.296C313.634 234.16 314.53 234.592 315.714 234.592C316.642 234.592 317.346 234.336 317.826 233.824C318.306 233.28 318.546 232.56 318.546 231.664C318.546 230.864 318.37 230.144 318.018 229.504C317.666 228.864 317.09 228.208 316.29 227.536L311.538 223.456C310.578 222.624 309.762 221.696 309.09 220.672C308.45 219.648 308.13 218.32 308.13 216.688C308.13 215.216 308.418 213.984 308.994 212.992C309.602 211.968 310.434 211.2 311.49 210.688C312.578 210.144 313.842 209.872 315.282 209.872C317.49 209.872 319.17 210.592 320.322 212.032C321.506 213.44 322.178 215.152 322.338 217.168L318.882 218.464C318.754 217.504 318.562 216.672 318.306 215.968C318.05 215.232 317.698 214.672 317.25 214.288C316.802 213.872 316.21 213.664 315.474 213.664C314.642 213.664 313.97 213.952 313.458 214.528C312.978 215.072 312.738 215.728 312.738 216.496C312.738 216.976 312.834 217.456 313.026 217.936C313.25 218.384 313.618 218.832 314.13 219.28L319.026 223.792C319.698 224.4 320.322 225.056 320.898 225.76C321.506 226.464 322.002 227.264 322.386 228.16C322.77 229.056 322.962 230.096 322.962 231.28C322.962 232.848 322.642 234.16 322.002 235.216C321.362 236.272 320.466 237.072 319.314 237.616C318.162 238.128 316.818 238.384 315.282 238.384Z" fill="#4A6C7C"/>
<path d="M508.907 238V199.12H514.331V234.112H524.267V238H508.907ZM532.545 238.384C531.457 238.384 530.497 238.08 529.665 237.472C528.833 236.832 528.177 236.032 527.697 235.072C527.217 234.08 526.977 233.04 526.977 231.952C526.977 230.224 527.265 228.768 527.841 227.584C528.417 226.4 529.201 225.408 530.193 224.608C531.217 223.776 532.385 223.056 533.697 222.448C535.041 221.84 536.449 221.248 537.921 220.672V218.704C537.921 217.584 537.857 216.656 537.729 215.92C537.601 215.184 537.329 214.64 536.913 214.288C536.529 213.904 535.937 213.712 535.137 213.712C534.433 213.712 533.857 213.872 533.409 214.192C532.993 214.512 532.689 214.976 532.497 215.584C532.305 216.16 532.209 216.848 532.209 217.648V219.04L527.121 218.848C527.185 215.776 527.889 213.52 529.233 212.08C530.577 210.608 532.657 209.872 535.473 209.872C538.225 209.872 540.177 210.624 541.329 212.128C542.481 213.632 543.057 215.808 543.057 218.656V231.328C543.057 232.192 543.073 233.024 543.105 233.824C543.169 234.624 543.233 235.376 543.297 236.08C543.393 236.752 543.473 237.392 543.537 238H538.833C538.737 237.488 538.609 236.848 538.449 236.08C538.321 235.28 538.225 234.56 538.161 233.92C537.841 235.008 537.217 236.032 536.289 236.992C535.393 237.92 534.145 238.384 532.545 238.384ZM534.561 233.968C535.073 233.968 535.553 233.824 536.001 233.536C536.449 233.248 536.849 232.928 537.201 232.576C537.553 232.192 537.793 231.888 537.921 231.664V223.792C537.121 224.24 536.369 224.688 535.665 225.136C534.961 225.584 534.337 226.064 533.793 226.576C533.281 227.056 532.865 227.616 532.545 228.256C532.257 228.864 532.113 229.568 532.113 230.368C532.113 231.488 532.321 232.368 532.737 233.008C533.153 233.648 533.761 233.968 534.561 233.968ZM547.99 238V210.256H553.126V212.992C554.054 212.128 555.078 211.392 556.198 210.784C557.318 210.176 558.55 209.872 559.894 209.872C561.014 209.872 561.862 210.16 562.438 210.736C563.046 211.312 563.462 212.032 563.686 212.896C563.942 213.76 564.07 214.64 564.07 215.536V238H558.934V217.024C558.934 216.032 558.79 215.264 558.502 214.72C558.214 214.176 557.622 213.904 556.726 213.904C556.15 213.904 555.542 214.08 554.902 214.432C554.294 214.752 553.702 215.152 553.126 215.632V238H547.99ZM576.284 246.592C574.62 246.592 573.116 246.416 571.772 246.064C570.428 245.712 569.372 245.152 568.604 244.384C567.836 243.616 567.452 242.608 567.452 241.36C567.452 240.464 567.644 239.68 568.028 239.008C568.412 238.336 568.908 237.76 569.516 237.28C570.124 236.768 570.764 236.352 571.436 236.032C570.54 235.776 569.868 235.376 569.42 234.832C568.972 234.256 568.748 233.664 568.748 233.056C568.748 232.032 569.02 231.152 569.564 230.416C570.108 229.68 570.86 228.88 571.82 228.016C570.764 227.216 569.964 226.192 569.42 224.944C568.876 223.696 568.604 221.968 568.604 219.76C568.604 217.584 568.892 215.776 569.468 214.336C570.076 212.864 570.956 211.76 572.108 211.024C573.292 210.256 574.732 209.872 576.428 209.872C577.932 209.872 579.132 210.128 580.028 210.64C580.956 211.152 581.66 211.92 582.14 212.944C582.3 212.688 582.732 212.256 583.436 211.648C584.14 211.008 584.956 210.48 585.884 210.064L586.652 209.728L587.948 213.04C587.532 213.104 586.972 213.264 586.268 213.52C585.596 213.744 584.956 213.984 584.348 214.24C583.772 214.464 583.404 214.656 583.244 214.816C583.468 215.36 583.66 216.144 583.82 217.168C584.012 218.192 584.108 219.104 584.108 219.904C584.108 221.792 583.868 223.456 583.388 224.896C582.908 226.336 582.108 227.472 580.988 228.304C579.9 229.104 578.38 229.504 576.428 229.504C576.012 229.504 575.564 229.472 575.084 229.408C574.604 229.344 574.172 229.264 573.788 229.168C573.596 229.456 573.388 229.792 573.164 230.176C572.972 230.56 572.876 230.928 572.876 231.28C572.876 231.632 573.052 231.92 573.404 232.144C573.788 232.336 574.38 232.464 575.18 232.528L579.5 232.912C581.676 233.104 583.292 233.76 584.348 234.88C585.404 236 585.932 237.6 585.932 239.68C585.932 241.184 585.58 242.448 584.876 243.472C584.172 244.528 583.1 245.312 581.66 245.824C580.252 246.336 578.46 246.592 576.284 246.592ZM576.668 242.56C578.492 242.56 579.836 242.336 580.7 241.888C581.564 241.472 581.996 240.784 581.996 239.824C581.996 239.248 581.884 238.768 581.66 238.384C581.468 238 581.1 237.696 580.556 237.472C580.012 237.248 579.228 237.088 578.204 236.992L573.836 236.608C573.484 236.96 573.148 237.312 572.828 237.664C572.508 238.016 572.252 238.384 572.06 238.768C571.868 239.184 571.772 239.616 571.772 240.064C571.772 240.896 572.124 241.52 572.828 241.936C573.532 242.352 574.812 242.56 576.668 242.56ZM576.428 225.904C577.164 225.904 577.74 225.776 578.156 225.52C578.604 225.232 578.94 224.832 579.164 224.32C579.388 223.776 579.532 223.12 579.596 222.352C579.692 221.584 579.74 220.72 579.74 219.76C579.74 218.8 579.692 217.936 579.596 217.168C579.532 216.368 579.388 215.696 579.164 215.152C578.972 214.576 578.652 214.144 578.204 213.856C577.788 213.568 577.212 213.424 576.476 213.424C575.772 213.424 575.18 213.568 574.7 213.856C574.252 214.144 573.916 214.56 573.692 215.104C573.468 215.616 573.308 216.272 573.212 217.072C573.116 217.84 573.068 218.736 573.068 219.76C573.068 220.624 573.1 221.44 573.164 222.208C573.26 222.944 573.42 223.584 573.644 224.128C573.9 224.672 574.252 225.104 574.7 225.424C575.148 225.744 575.724 225.904 576.428 225.904ZM593.928 238.384C592.84 238.384 591.992 238.096 591.384 237.52C590.776 236.944 590.344 236.224 590.088 235.36C589.864 234.496 589.752 233.616 589.752 232.72V210.256H594.888V231.184C594.888 232.176 595.032 232.96 595.32 233.536C595.608 234.08 596.2 234.352 597.096 234.352C597.672 234.352 598.264 234.192 598.872 233.872C599.512 233.52 600.12 233.104 600.696 232.624V210.256H605.832V238H600.696V235.264C599.8 236.128 598.776 236.864 597.624 237.472C596.504 238.08 595.272 238.384 593.928 238.384ZM616.076 238.384C614.988 238.384 614.028 238.08 613.196 237.472C612.364 236.832 611.708 236.032 611.228 235.072C610.748 234.08 610.508 233.04 610.508 231.952C610.508 230.224 610.796 228.768 611.372 227.584C611.948 226.4 612.732 225.408 613.724 224.608C614.748 223.776 615.916 223.056 617.228 222.448C618.572 221.84 619.98 221.248 621.452 220.672V218.704C621.452 217.584 621.388 216.656 621.26 215.92C621.132 215.184 620.86 214.64 620.444 214.288C620.06 213.904 619.468 213.712 618.668 213.712C617.964 213.712 617.388 213.872 616.94 214.192C616.524 214.512 616.22 214.976 616.028 215.584C615.836 216.16 615.74 216.848 615.74 217.648V219.04L610.652 218.848C610.716 215.776 611.42 213.52 612.764 212.08C614.108 210.608 616.188 209.872 619.004 209.872C621.756 209.872 623.708 210.624 624.86 212.128C626.012 213.632 626.588 215.808 626.588 218.656V231.328C626.588 232.192 626.604 233.024 626.636 233.824C626.7 234.624 626.764 235.376 626.828 236.08C626.924 236.752 627.004 237.392 627.068 238H622.364C622.268 237.488 622.14 236.848 621.98 236.08C621.852 235.28 621.756 234.56 621.692 233.92C621.372 235.008 620.748 236.032 619.82 236.992C618.924 237.92 617.676 238.384 616.076 238.384ZM618.092 233.968C618.604 233.968 619.084 233.824 619.532 233.536C619.98 233.248 620.38 232.928 620.732 232.576C621.084 232.192 621.324 231.888 621.452 231.664V223.792C620.652 224.24 619.9 224.688 619.196 225.136C618.492 225.584 617.868 226.064 617.324 226.576C616.812 227.056 616.396 227.616 616.076 228.256C615.788 228.864 615.644 229.568 615.644 230.368C615.644 231.488 615.852 232.368 616.268 233.008C616.684 233.648 617.292 233.968 618.092 233.968ZM638.722 246.592C637.058 246.592 635.554 246.416 634.21 246.064C632.866 245.712 631.81 245.152 631.042 244.384C630.274 243.616 629.89 242.608 629.89 241.36C629.89 240.464 630.082 239.68 630.466 239.008C630.85 238.336 631.346 237.76 631.954 237.28C632.562 236.768 633.202 236.352 633.874 236.032C632.978 235.776 632.306 235.376 631.858 234.832C631.41 234.256 631.186 233.664 631.186 233.056C631.186 232.032 631.458 231.152 632.002 230.416C632.546 229.68 633.298 228.88 634.258 228.016C633.202 227.216 632.402 226.192 631.858 224.944C631.314 223.696 631.042 221.968 631.042 219.76C631.042 217.584 631.33 215.776 631.906 214.336C632.514 212.864 633.394 211.76 634.546 211.024C635.73 210.256 637.17 209.872 638.866 209.872C640.37 209.872 641.57 210.128 642.466 210.64C643.394 211.152 644.098 211.92 644.578 212.944C644.738 212.688 645.17 212.256 645.874 211.648C646.578 211.008 647.394 210.48 648.322 210.064L649.09 209.728L650.386 213.04C649.97 213.104 649.41 213.264 648.706 213.52C648.034 213.744 647.394 213.984 646.786 214.24C646.21 214.464 645.842 214.656 645.682 214.816C645.906 215.36 646.098 216.144 646.258 217.168C646.45 218.192 646.546 219.104 646.546 219.904C646.546 221.792 646.306 223.456 645.826 224.896C645.346 226.336 644.546 227.472 643.426 228.304C642.338 229.104 640.818 229.504 638.866 229.504C638.45 229.504 638.002 229.472 637.522 229.408C637.042 229.344 636.61 229.264 636.226 229.168C636.034 229.456 635.826 229.792 635.602 230.176C635.41 230.56 635.314 230.928 635.314 231.28C635.314 231.632 635.49 231.92 635.842 232.144C636.226 232.336 636.818 232.464 637.618 232.528L641.938 232.912C644.114 233.104 645.73 233.76 646.786 234.88C647.842 236 648.37 237.6 648.37 239.68C648.37 241.184 648.018 242.448 647.314 243.472C646.61 244.528 645.538 245.312 644.098 245.824C642.69 246.336 640.898 246.592 638.722 246.592ZM639.106 242.56C640.93 242.56 642.274 242.336 643.138 241.888C644.002 241.472 644.434 240.784 644.434 239.824C644.434 239.248 644.322 238.768 644.098 238.384C643.906 238 643.538 237.696 642.994 237.472C642.45 237.248 641.666 237.088 640.642 236.992L636.274 236.608C635.922 236.96 635.586 237.312 635.266 237.664C634.946 238.016 634.69 238.384 634.498 238.768C634.306 239.184 634.21 239.616 634.21 240.064C634.21 240.896 634.562 241.52 635.266 241.936C635.97 242.352 637.25 242.56 639.106 242.56ZM638.866 225.904C639.602 225.904 640.178 225.776 640.594 225.52C641.042 225.232 641.378 224.832 641.602 224.32C641.826 223.776 641.97 223.12 642.034 222.352C642.13 221.584 642.178 220.72 642.178 219.76C642.178 218.8 642.13 217.936 642.034 217.168C641.97 216.368 641.826 215.696 641.602 215.152C641.41 214.576 641.09 214.144 640.642 213.856C640.226 213.568 639.65 213.424 638.914 213.424C638.21 213.424 637.618 213.568 637.138 213.856C636.69 214.144 636.354 214.56 636.13 215.104C635.906 215.616 635.746 216.272 635.65 217.072C635.554 217.84 635.506 218.736 635.506 219.76C635.506 220.624 635.538 221.44 635.602 222.208C635.698 222.944 635.858 223.584 636.082 224.128C636.338 224.672 636.69 225.104 637.138 225.424C637.586 225.744 638.162 225.904 638.866 225.904ZM659.874 238.384C657.698 238.384 656.018 237.968 654.834 237.136C653.65 236.272 652.818 235.024 652.338 233.392C651.89 231.728 651.666 229.696 651.666 227.296V220.96C651.666 218.496 651.906 216.448 652.386 214.816C652.866 213.184 653.698 211.952 654.882 211.12C656.098 210.288 657.762 209.872 659.874 209.872C662.21 209.872 663.922 210.352 665.01 211.312C666.13 212.272 666.866 213.664 667.218 215.488C667.57 217.28 667.746 219.44 667.746 221.968V224.224H656.802V229.792C656.802 230.912 656.898 231.824 657.09 232.528C657.314 233.232 657.65 233.76 658.098 234.112C658.578 234.432 659.186 234.592 659.922 234.592C660.69 234.592 661.266 234.416 661.65 234.064C662.066 233.68 662.338 233.152 662.466 232.48C662.626 231.776 662.706 230.96 662.706 230.032V228.352H667.698V229.408C667.698 232.192 667.106 234.384 665.922 235.984C664.738 237.584 662.722 238.384 659.874 238.384ZM656.802 221.44H662.706V218.944C662.706 217.792 662.642 216.832 662.514 216.064C662.386 215.264 662.114 214.672 661.698 214.288C661.314 213.872 660.69 213.664 659.826 213.664C658.994 213.664 658.354 213.856 657.906 214.24C657.49 214.624 657.202 215.28 657.042 216.208C656.882 217.104 656.802 218.352 656.802 219.952V221.44ZM688.069 238V203.152H681.493V199.12H699.877V203.152H693.493V238H688.069ZM703.338 238V210.256H708.474V214.192C709.498 212.496 710.522 211.36 711.546 210.784C712.57 210.208 713.594 209.92 714.618 209.92C714.746 209.92 714.858 209.92 714.954 209.92C715.082 209.92 715.242 209.936 715.434 209.968V215.632C715.05 215.472 714.602 215.344 714.09 215.248C713.61 215.12 713.114 215.056 712.602 215.056C711.802 215.056 711.066 215.248 710.394 215.632C709.754 215.984 709.114 216.688 708.474 217.744V238H703.338ZM723.607 238.384C722.519 238.384 721.559 238.08 720.727 237.472C719.895 236.832 719.239 236.032 718.759 235.072C718.279 234.08 718.039 233.04 718.039 231.952C718.039 230.224 718.327 228.768 718.903 227.584C719.479 226.4 720.263 225.408 721.255 224.608C722.279 223.776 723.447 223.056 724.759 222.448C726.103 221.84 727.511 221.248 728.983 220.672V218.704C728.983 217.584 728.919 216.656 728.791 215.92C728.663 215.184 728.391 214.64 727.975 214.288C727.591 213.904 726.999 213.712 726.199 213.712C725.495 213.712 724.919 213.872 724.471 214.192C724.055 214.512 723.751 214.976 723.559 215.584C723.367 216.16 723.271 216.848 723.271 217.648V219.04L718.183 218.848C718.247 215.776 718.951 213.52 720.295 212.08C721.639 210.608 723.719 209.872 726.535 209.872C729.287 209.872 731.239 210.624 732.391 212.128C733.543 213.632 734.119 215.808 734.119 218.656V231.328C734.119 232.192 734.135 233.024 734.167 233.824C734.231 234.624 734.295 235.376 734.359 236.08C734.455 236.752 734.535 237.392 734.599 238H729.895C729.799 237.488 729.671 236.848 729.511 236.08C729.383 235.28 729.287 234.56 729.223 233.92C728.903 235.008 728.279 236.032 727.351 236.992C726.455 237.92 725.207 238.384 723.607 238.384ZM725.623 233.968C726.135 233.968 726.615 233.824 727.063 233.536C727.511 233.248 727.911 232.928 728.263 232.576C728.615 232.192 728.855 231.888 728.983 231.664V223.792C728.183 224.24 727.431 224.688 726.727 225.136C726.023 225.584 725.399 226.064 724.855 226.576C724.343 227.056 723.927 227.616 723.607 228.256C723.319 228.864 723.175 229.568 723.175 230.368C723.175 231.488 723.383 232.368 723.799 233.008C724.215 233.648 724.823 233.968 725.623 233.968ZM739.053 238V210.256H744.189V212.992C745.117 212.128 746.141 211.392 747.261 210.784C748.381 210.176 749.613 209.872 750.957 209.872C752.077 209.872 752.925 210.16 753.501 210.736C754.109 211.312 754.525 212.032 754.749 212.896C755.005 213.76 755.133 214.64 755.133 215.536V238H749.997V217.024C749.997 216.032 749.853 215.264 749.565 214.72C749.277 214.176 748.685 213.904 747.789 213.904C747.213 213.904 746.605 214.08 745.965 214.432C745.357 214.752 744.765 215.152 744.189 215.632V238H739.053ZM766.579 238.384C764.307 238.384 762.483 237.68 761.107 236.272C759.731 234.832 758.947 232.944 758.755 230.608L763.027 229.312C763.283 231.072 763.715 232.4 764.323 233.296C764.931 234.16 765.827 234.592 767.011 234.592C767.939 234.592 768.643 234.336 769.123 233.824C769.603 233.28 769.843 232.56 769.843 231.664C769.843 230.864 769.667 230.144 769.315 229.504C768.963 228.864 768.387 228.208 767.587 227.536L762.835 223.456C761.875 222.624 761.059 221.696 760.387 220.672C759.747 219.648 759.427 218.32 759.427 216.688C759.427 215.216 759.715 213.984 760.291 212.992C760.899 211.968 761.731 211.2 762.787 210.688C763.875 210.144 765.139 209.872 766.579 209.872C768.787 209.872 770.467 210.592 771.619 212.032C772.803 213.44 773.475 215.152 773.635 217.168L770.179 218.464C770.051 217.504 769.859 216.672 769.603 215.968C769.347 215.232 768.995 214.672 768.547 214.288C768.099 213.872 767.507 213.664 766.771 213.664C765.939 213.664 765.267 213.952 764.755 214.528C764.275 215.072 764.035 215.728 764.035 216.496C764.035 216.976 764.131 217.456 764.323 217.936C764.547 218.384 764.915 218.832 765.427 219.28L770.323 223.792C770.995 224.4 771.619 225.056 772.195 225.76C772.803 226.464 773.299 227.264 773.683 228.16C774.067 229.056 774.259 230.096 774.259 231.28C774.259 232.848 773.939 234.16 773.299 235.216C772.659 236.272 771.763 237.072 770.611 237.616C769.459 238.128 768.115 238.384 766.579 238.384ZM778.58 238V199.12H783.716V238H778.58ZM794.061 238.384C792.973 238.384 792.013 238.08 791.181 237.472C790.349 236.832 789.693 236.032 789.213 235.072C788.733 234.08 788.493 233.04 788.493 231.952C788.493 230.224 788.781 228.768 789.357 227.584C789.933 226.4 790.717 225.408 791.709 224.608C792.733 223.776 793.901 223.056 795.213 222.448C796.557 221.84 797.965 221.248 799.437 220.672V218.704C799.437 217.584 799.373 216.656 799.245 215.92C799.117 215.184 798.845 214.64 798.429 214.288C798.045 213.904 797.453 213.712 796.653 213.712C795.949 213.712 795.373 213.872 794.925 214.192C794.509 214.512 794.205 214.976 794.013 215.584C793.821 216.16 793.725 216.848 793.725 217.648V219.04L788.637 218.848C788.701 215.776 789.405 213.52 790.749 212.08C792.093 210.608 794.173 209.872 796.989 209.872C799.741 209.872 801.693 210.624 802.845 212.128C803.997 213.632 804.573 215.808 804.573 218.656V231.328C804.573 232.192 804.589 233.024 804.621 233.824C804.685 234.624 804.749 235.376 804.813 236.08C804.909 236.752 804.989 237.392 805.053 238H800.349C800.253 237.488 800.125 236.848 799.965 236.08C799.837 235.28 799.741 234.56 799.677 233.92C799.357 235.008 798.733 236.032 797.805 236.992C796.909 237.92 795.661 238.384 794.061 238.384ZM796.077 233.968C796.589 233.968 797.069 233.824 797.517 233.536C797.965 233.248 798.365 232.928 798.717 232.576C799.069 232.192 799.309 231.888 799.437 231.664V223.792C798.637 224.24 797.885 224.688 797.181 225.136C796.477 225.584 795.853 226.064 795.309 226.576C794.797 227.056 794.381 227.616 794.061 228.256C793.773 228.864 793.629 229.568 793.629 230.368C793.629 231.488 793.837 232.368 794.253 233.008C794.669 233.648 795.277 233.968 796.077 233.968ZM816.523 238.384C815.083 238.384 813.915 238.112 813.019 237.568C812.155 237.024 811.515 236.256 811.099 235.264C810.715 234.272 810.523 233.104 810.523 231.76V213.664H807.595V210.256H810.523V202.144H815.659V210.256H820.123V213.664H815.659V231.424C815.659 232.512 815.835 233.296 816.187 233.776C816.539 234.224 817.211 234.448 818.203 234.448C818.459 234.448 818.747 234.432 819.067 234.4C819.419 234.368 819.755 234.336 820.075 234.304V238.096C819.435 238.192 818.843 238.256 818.299 238.288C817.755 238.352 817.163 238.384 816.523 238.384ZM831.529 238.384C829.481 238.384 827.865 237.968 826.681 237.136C825.497 236.304 824.649 235.12 824.137 233.584C823.657 232.048 823.417 230.24 823.417 228.16V220.096C823.417 218.016 823.657 216.208 824.137 214.672C824.649 213.136 825.497 211.952 826.681 211.12C827.865 210.288 829.481 209.872 831.529 209.872C833.577 209.872 835.177 210.288 836.329 211.12C837.513 211.952 838.345 213.136 838.825 214.672C839.337 216.208 839.593 218.016 839.593 220.096V228.16C839.593 230.24 839.337 232.048 838.825 233.584C838.345 235.12 837.513 236.304 836.329 237.136C835.177 237.968 833.577 238.384 831.529 238.384ZM831.529 234.592C832.521 234.592 833.209 234.304 833.593 233.728C834.009 233.152 834.249 232.4 834.313 231.472C834.409 230.512 834.457 229.52 834.457 228.496V219.808C834.457 218.752 834.409 217.76 834.313 216.832C834.249 215.904 834.009 215.152 833.593 214.576C833.209 213.968 832.521 213.664 831.529 213.664C830.537 213.664 829.833 213.968 829.417 214.576C829.001 215.152 828.745 215.904 828.649 216.832C828.585 217.76 828.553 218.752 828.553 219.808V228.496C828.553 229.52 828.585 230.512 828.649 231.472C828.745 232.4 829.001 233.152 829.417 233.728C829.833 234.304 830.537 234.592 831.529 234.592ZM844.431 238V210.256H849.567V214.192C850.591 212.496 851.615 211.36 852.639 210.784C853.663 210.208 854.687 209.92 855.711 209.92C855.839 209.92 855.951 209.92 856.047 209.92C856.175 209.92 856.335 209.936 856.527 209.968V215.632C856.143 215.472 855.695 215.344 855.183 215.248C854.703 215.12 854.207 215.056 853.695 215.056C852.895 215.056 852.159 215.248 851.487 215.632C850.847 215.984 850.207 216.688 849.567 217.744V238H844.431Z" fill="#4A6C7C"/>
<path d="M992.896 238L1001.15 199.12H1006.38L1014.69 238H1009.55L1007.78 228.208H999.856L997.984 238H992.896ZM1000.58 224.32H1007.06L1003.79 206.8L1000.58 224.32ZM1022.19 238.384C1021.1 238.384 1020.25 238.096 1019.64 237.52C1019.03 236.944 1018.6 236.224 1018.35 235.36C1018.12 234.496 1018.01 233.616 1018.01 232.72V210.256H1023.15V231.184C1023.15 232.176 1023.29 232.96 1023.58 233.536C1023.87 234.08 1024.46 234.352 1025.35 234.352C1025.93 234.352 1026.52 234.192 1027.13 233.872C1027.77 233.52 1028.38 233.104 1028.95 232.624V210.256H1034.09V238H1028.95V235.264C1028.06 236.128 1027.03 236.864 1025.88 237.472C1024.76 238.08 1023.53 238.384 1022.19 238.384ZM1045.77 238.384C1043.44 238.384 1041.69 237.536 1040.54 235.84C1039.39 234.112 1038.81 231.2 1038.81 227.104V221.728C1038.81 219.616 1038.99 217.664 1039.34 215.872C1039.69 214.048 1040.35 212.592 1041.31 211.504C1042.3 210.416 1043.74 209.872 1045.63 209.872C1046.56 209.872 1047.41 210.08 1048.17 210.496C1048.94 210.912 1049.63 211.424 1050.24 212.032V199.12H1055.37V238H1050.24V236.224C1049.63 236.864 1048.96 237.392 1048.22 237.808C1047.52 238.192 1046.7 238.384 1045.77 238.384ZM1047.07 234.352C1047.55 234.352 1048.06 234.272 1048.61 234.112C1049.15 233.92 1049.69 233.648 1050.24 233.296V215.104C1049.79 214.784 1049.29 214.512 1048.75 214.288C1048.21 214.032 1047.61 213.904 1046.97 213.904C1045.79 213.904 1044.99 214.48 1044.57 215.632C1044.16 216.752 1043.95 218.112 1043.95 219.712V227.536C1043.95 228.816 1044.01 229.984 1044.14 231.04C1044.3 232.064 1044.61 232.88 1045.05 233.488C1045.5 234.064 1046.17 234.352 1047.07 234.352ZM1060.91 238V210.256H1066.05V238H1060.91ZM1060.91 206.128V200.752H1066.05V206.128H1060.91ZM1079.18 238.384C1077.13 238.384 1075.51 237.968 1074.33 237.136C1073.15 236.304 1072.3 235.12 1071.79 233.584C1071.31 232.048 1071.07 230.24 1071.07 228.16V220.096C1071.07 218.016 1071.31 216.208 1071.79 214.672C1072.3 213.136 1073.15 211.952 1074.33 211.12C1075.51 210.288 1077.13 209.872 1079.18 209.872C1081.23 209.872 1082.83 210.288 1083.98 211.12C1085.16 211.952 1085.99 213.136 1086.47 214.672C1086.99 216.208 1087.24 218.016 1087.24 220.096V228.16C1087.24 230.24 1086.99 232.048 1086.47 233.584C1085.99 235.12 1085.16 236.304 1083.98 237.136C1082.83 237.968 1081.23 238.384 1079.18 238.384ZM1079.18 234.592C1080.17 234.592 1080.86 234.304 1081.24 233.728C1081.66 233.152 1081.9 232.4 1081.96 231.472C1082.06 230.512 1082.11 229.52 1082.11 228.496V219.808C1082.11 218.752 1082.06 217.76 1081.96 216.832C1081.9 215.904 1081.66 215.152 1081.24 214.576C1080.86 213.968 1080.17 213.664 1079.18 213.664C1078.19 213.664 1077.48 213.968 1077.07 214.576C1076.65 215.152 1076.39 215.904 1076.3 216.832C1076.23 217.76 1076.2 218.752 1076.2 219.808V228.496C1076.2 229.52 1076.23 230.512 1076.3 231.472C1076.39 232.4 1076.65 233.152 1077.07 233.728C1077.48 234.304 1078.19 234.592 1079.18 234.592ZM1112.5 238.432C1110.26 238.432 1108.39 237.952 1106.89 236.992C1105.42 236.032 1104.3 234.704 1103.53 233.008C1102.76 231.312 1102.31 229.344 1102.18 227.104L1106.98 225.808C1107.08 227.184 1107.29 228.512 1107.61 229.792C1107.96 231.072 1108.52 232.128 1109.29 232.96C1110.06 233.76 1111.13 234.16 1112.5 234.16C1113.91 234.16 1114.97 233.776 1115.67 233.008C1116.41 232.208 1116.78 231.072 1116.78 229.6C1116.78 227.84 1116.38 226.432 1115.58 225.376C1114.78 224.288 1113.77 223.2 1112.55 222.112L1106.02 216.352C1104.74 215.232 1103.8 214.016 1103.19 212.704C1102.58 211.36 1102.28 209.712 1102.28 207.76C1102.28 204.912 1103.1 202.704 1104.73 201.136C1106.36 199.568 1108.58 198.784 1111.4 198.784C1112.94 198.784 1114.28 198.992 1115.43 199.408C1116.62 199.792 1117.59 200.4 1118.36 201.232C1119.16 202.064 1119.78 203.12 1120.23 204.4C1120.71 205.648 1121.03 207.12 1121.19 208.816L1116.58 210.064C1116.49 208.784 1116.3 207.616 1116.01 206.56C1115.72 205.472 1115.21 204.608 1114.47 203.968C1113.77 203.296 1112.74 202.96 1111.4 202.96C1110.06 202.96 1109 203.328 1108.23 204.064C1107.5 204.768 1107.13 205.824 1107.13 207.232C1107.13 208.416 1107.32 209.392 1107.7 210.16C1108.12 210.928 1108.78 211.712 1109.67 212.512L1116.25 218.272C1117.72 219.552 1119.02 221.088 1120.14 222.88C1121.26 224.64 1121.82 226.736 1121.82 229.168C1121.82 231.088 1121.42 232.752 1120.62 234.16C1119.82 235.536 1118.71 236.592 1117.3 237.328C1115.93 238.064 1114.33 238.432 1112.5 238.432ZM1133.18 238.384C1130.9 238.384 1129.18 237.936 1127.99 237.04C1126.84 236.112 1126.06 234.816 1125.64 233.152C1125.26 231.488 1125.06 229.552 1125.06 227.344V220.96C1125.06 218.624 1125.27 216.64 1125.69 215.008C1126.1 213.344 1126.89 212.08 1128.04 211.216C1129.22 210.32 1130.94 209.872 1133.18 209.872C1135.19 209.872 1136.74 210.208 1137.83 210.88C1138.95 211.52 1139.72 212.496 1140.14 213.808C1140.55 215.088 1140.76 216.688 1140.76 218.608V220.24H1136.1V218.56C1136.1 217.344 1136.02 216.384 1135.86 215.68C1135.7 214.976 1135.42 214.464 1135 214.144C1134.58 213.824 1133.99 213.664 1133.22 213.664C1132.39 213.664 1131.75 213.856 1131.3 214.24C1130.86 214.624 1130.55 215.28 1130.39 216.208C1130.26 217.104 1130.2 218.336 1130.2 219.904V228.64C1130.2 231.008 1130.42 232.592 1130.87 233.392C1131.32 234.192 1132.12 234.592 1133.27 234.592C1134.14 234.592 1134.76 234.4 1135.14 234.016C1135.56 233.6 1135.82 233.024 1135.91 232.288C1136.04 231.552 1136.1 230.72 1136.1 229.792V227.536H1140.76V229.456C1140.76 231.312 1140.54 232.912 1140.09 234.256C1139.67 235.6 1138.9 236.624 1137.78 237.328C1136.7 238.032 1135.16 238.384 1133.18 238.384ZM1145.47 238V210.256H1150.61V214.192C1151.63 212.496 1152.65 211.36 1153.68 210.784C1154.7 210.208 1155.73 209.92 1156.75 209.92C1156.88 209.92 1156.99 209.92 1157.09 209.92C1157.21 209.92 1157.37 209.936 1157.57 209.968V215.632C1157.18 215.472 1156.73 215.344 1156.22 215.248C1155.74 215.12 1155.25 215.056 1154.73 215.056C1153.93 215.056 1153.2 215.248 1152.53 215.632C1151.89 215.984 1151.25 216.688 1150.61 217.744V238H1145.47ZM1168.43 238.384C1166.25 238.384 1164.57 237.968 1163.39 237.136C1162.2 236.272 1161.37 235.024 1160.89 233.392C1160.44 231.728 1160.22 229.696 1160.22 227.296V220.96C1160.22 218.496 1160.46 216.448 1160.94 214.816C1161.42 213.184 1162.25 211.952 1163.44 211.12C1164.65 210.288 1166.32 209.872 1168.43 209.872C1170.76 209.872 1172.48 210.352 1173.56 211.312C1174.68 212.272 1175.42 213.664 1175.77 215.488C1176.12 217.28 1176.3 219.44 1176.3 221.968V224.224H1165.36V229.792C1165.36 230.912 1165.45 231.824 1165.64 232.528C1165.87 233.232 1166.2 233.76 1166.65 234.112C1167.13 234.432 1167.74 234.592 1168.48 234.592C1169.24 234.592 1169.82 234.416 1170.2 234.064C1170.62 233.68 1170.89 233.152 1171.02 232.48C1171.18 231.776 1171.26 230.96 1171.26 230.032V228.352H1176.25V229.408C1176.25 232.192 1175.66 234.384 1174.48 235.984C1173.29 237.584 1171.28 238.384 1168.43 238.384ZM1165.36 221.44H1171.26V218.944C1171.26 217.792 1171.2 216.832 1171.07 216.064C1170.94 215.264 1170.67 214.672 1170.25 214.288C1169.87 213.872 1169.24 213.664 1168.38 213.664C1167.55 213.664 1166.91 213.856 1166.46 214.24C1166.04 214.624 1165.76 215.28 1165.6 216.208C1165.44 217.104 1165.36 218.352 1165.36 219.952V221.44ZM1188.63 238.384C1186.46 238.384 1184.78 237.968 1183.59 237.136C1182.41 236.272 1181.58 235.024 1181.1 233.392C1180.65 231.728 1180.42 229.696 1180.42 227.296V220.96C1180.42 218.496 1180.66 216.448 1181.14 214.816C1181.62 213.184 1182.46 211.952 1183.64 211.12C1184.86 210.288 1186.52 209.872 1188.63 209.872C1190.97 209.872 1192.68 210.352 1193.77 211.312C1194.89 212.272 1195.62 213.664 1195.98 215.488C1196.33 217.28 1196.5 219.44 1196.5 221.968V224.224H1185.56V229.792C1185.56 230.912 1185.66 231.824 1185.85 232.528C1186.07 233.232 1186.41 233.76 1186.86 234.112C1187.34 234.432 1187.94 234.592 1188.68 234.592C1189.45 234.592 1190.02 234.416 1190.41 234.064C1190.82 233.68 1191.1 233.152 1191.22 232.48C1191.38 231.776 1191.46 230.96 1191.46 230.032V228.352H1196.46V229.408C1196.46 232.192 1195.86 234.384 1194.68 235.984C1193.5 237.584 1191.48 238.384 1188.63 238.384ZM1185.56 221.44H1191.46V218.944C1191.46 217.792 1191.4 216.832 1191.27 216.064C1191.14 215.264 1190.87 214.672 1190.46 214.288C1190.07 213.872 1189.45 213.664 1188.58 213.664C1187.75 213.664 1187.11 213.856 1186.66 214.24C1186.25 214.624 1185.96 215.28 1185.8 216.208C1185.64 217.104 1185.56 218.352 1185.56 219.952V221.44ZM1201.15 238V210.256H1206.29V212.992C1207.22 212.128 1208.24 211.392 1209.36 210.784C1210.48 210.176 1211.71 209.872 1213.06 209.872C1214.18 209.872 1215.03 210.16 1215.6 210.736C1216.21 211.312 1216.63 212.032 1216.85 212.896C1217.11 213.76 1217.23 214.64 1217.23 215.536V238H1212.1V217.024C1212.1 216.032 1211.95 215.264 1211.67 214.72C1211.38 214.176 1210.79 213.904 1209.89 213.904C1209.31 213.904 1208.71 214.08 1208.07 214.432C1207.46 214.752 1206.87 215.152 1206.29 215.632V238H1201.15ZM1233.65 238V199.12H1241.47C1244.07 199.12 1246.21 199.472 1247.91 200.176C1249.6 200.848 1250.85 201.952 1251.65 203.488C1252.48 204.992 1252.9 206.976 1252.9 209.44C1252.9 210.944 1252.74 212.32 1252.42 213.568C1252.1 214.784 1251.59 215.824 1250.88 216.688C1250.18 217.52 1249.25 218.128 1248.1 218.512L1253.62 238H1248.39L1243.3 219.76H1239.07V238H1233.65ZM1239.07 215.872H1241.14C1242.67 215.872 1243.92 215.68 1244.88 215.296C1245.84 214.912 1246.55 214.256 1246.99 213.328C1247.44 212.4 1247.67 211.104 1247.67 209.44C1247.67 207.168 1247.25 205.536 1246.42 204.544C1245.59 203.52 1243.94 203.008 1241.47 203.008H1239.07V215.872ZM1265.79 238.384C1263.61 238.384 1261.93 237.968 1260.75 237.136C1259.56 236.272 1258.73 235.024 1258.25 233.392C1257.8 231.728 1257.58 229.696 1257.58 227.296V220.96C1257.58 218.496 1257.82 216.448 1258.3 214.816C1258.78 213.184 1259.61 211.952 1260.8 211.12C1262.01 210.288 1263.68 209.872 1265.79 209.872C1268.12 209.872 1269.84 210.352 1270.92 211.312C1272.04 212.272 1272.78 213.664 1273.13 215.488C1273.48 217.28 1273.66 219.44 1273.66 221.968V224.224H1262.72V229.792C1262.72 230.912 1262.81 231.824 1263 232.528C1263.23 233.232 1263.56 233.76 1264.01 234.112C1264.49 234.432 1265.1 234.592 1265.84 234.592C1266.6 234.592 1267.18 234.416 1267.56 234.064C1267.98 233.68 1268.25 233.152 1268.38 232.48C1268.54 231.776 1268.62 230.96 1268.62 230.032V228.352H1273.61V229.408C1273.61 232.192 1273.02 234.384 1271.84 235.984C1270.65 237.584 1268.64 238.384 1265.79 238.384ZM1262.72 221.44H1268.62V218.944C1268.62 217.792 1268.56 216.832 1268.43 216.064C1268.3 215.264 1268.03 214.672 1267.61 214.288C1267.23 213.872 1266.6 213.664 1265.74 213.664C1264.91 213.664 1264.27 213.856 1263.82 214.24C1263.4 214.624 1263.12 215.28 1262.96 216.208C1262.8 217.104 1262.72 218.352 1262.72 219.952V221.44ZM1283.3 238.384C1282.21 238.384 1281.25 238.08 1280.42 237.472C1279.59 236.832 1278.93 236.032 1278.45 235.072C1277.97 234.08 1277.73 233.04 1277.73 231.952C1277.73 230.224 1278.02 228.768 1278.6 227.584C1279.17 226.4 1279.96 225.408 1280.95 224.608C1281.97 223.776 1283.14 223.056 1284.45 222.448C1285.8 221.84 1287.21 221.248 1288.68 220.672V218.704C1288.68 217.584 1288.61 216.656 1288.49 215.92C1288.36 215.184 1288.09 214.64 1287.67 214.288C1287.29 213.904 1286.69 213.712 1285.89 213.712C1285.19 213.712 1284.61 213.872 1284.17 214.192C1283.75 214.512 1283.45 214.976 1283.25 215.584C1283.06 216.16 1282.97 216.848 1282.97 217.648V219.04L1277.88 218.848C1277.94 215.776 1278.65 213.52 1279.99 212.08C1281.33 210.608 1283.41 209.872 1286.23 209.872C1288.98 209.872 1290.93 210.624 1292.09 212.128C1293.24 213.632 1293.81 215.808 1293.81 218.656V231.328C1293.81 232.192 1293.83 233.024 1293.86 233.824C1293.93 234.624 1293.99 235.376 1294.05 236.08C1294.15 236.752 1294.23 237.392 1294.29 238H1289.59C1289.49 237.488 1289.37 236.848 1289.21 236.08C1289.08 235.28 1288.98 234.56 1288.92 233.92C1288.6 235.008 1287.97 236.032 1287.05 236.992C1286.15 237.92 1284.9 238.384 1283.3 238.384ZM1285.32 233.968C1285.83 233.968 1286.31 233.824 1286.76 233.536C1287.21 233.248 1287.61 232.928 1287.96 232.576C1288.31 232.192 1288.55 231.888 1288.68 231.664V223.792C1287.88 224.24 1287.13 224.688 1286.42 225.136C1285.72 225.584 1285.09 226.064 1284.55 226.576C1284.04 227.056 1283.62 227.616 1283.3 228.256C1283.01 228.864 1282.87 229.568 1282.87 230.368C1282.87 231.488 1283.08 232.368 1283.49 233.008C1283.91 233.648 1284.52 233.968 1285.32 233.968ZM1305.18 238.384C1302.84 238.384 1301.1 237.536 1299.95 235.84C1298.8 234.112 1298.22 231.2 1298.22 227.104V221.728C1298.22 219.616 1298.4 217.664 1298.75 215.872C1299.1 214.048 1299.76 212.592 1300.72 211.504C1301.71 210.416 1303.15 209.872 1305.04 209.872C1305.96 209.872 1306.81 210.08 1307.58 210.496C1308.35 210.912 1309.04 211.424 1309.64 212.032V199.12H1314.78V238H1309.64V236.224C1309.04 236.864 1308.36 237.392 1307.63 237.808C1306.92 238.192 1306.11 238.384 1305.18 238.384ZM1306.48 234.352C1306.96 234.352 1307.47 234.272 1308.01 234.112C1308.56 233.92 1309.1 233.648 1309.64 233.296V215.104C1309.2 214.784 1308.7 214.512 1308.16 214.288C1307.61 214.032 1307.02 213.904 1306.38 213.904C1305.2 213.904 1304.4 214.48 1303.98 215.632C1303.56 216.752 1303.36 218.112 1303.36 219.712V227.536C1303.36 228.816 1303.42 229.984 1303.55 231.04C1303.71 232.064 1304.01 232.88 1304.46 233.488C1304.91 234.064 1305.58 234.352 1306.48 234.352ZM1327.66 238.384C1325.49 238.384 1323.81 237.968 1322.62 237.136C1321.44 236.272 1320.61 235.024 1320.13 233.392C1319.68 231.728 1319.45 229.696 1319.45 227.296V220.96C1319.45 218.496 1319.69 216.448 1320.17 214.816C1320.65 213.184 1321.49 211.952 1322.67 211.12C1323.89 210.288 1325.55 209.872 1327.66 209.872C1330 209.872 1331.71 210.352 1332.8 211.312C1333.92 212.272 1334.65 213.664 1335.01 215.488C1335.36 217.28 1335.53 219.44 1335.53 221.968V224.224H1324.59V229.792C1324.59 230.912 1324.69 231.824 1324.88 232.528C1325.1 233.232 1325.44 233.76 1325.89 234.112C1326.37 234.432 1326.97 234.592 1327.71 234.592C1328.48 234.592 1329.05 234.416 1329.44 234.064C1329.85 233.68 1330.13 233.152 1330.25 232.48C1330.41 231.776 1330.49 230.96 1330.49 230.032V228.352H1335.49V229.408C1335.49 232.192 1334.89 234.384 1333.71 235.984C1332.53 237.584 1330.51 238.384 1327.66 238.384ZM1324.59 221.44H1330.49V218.944C1330.49 217.792 1330.43 216.832 1330.3 216.064C1330.17 215.264 1329.9 214.672 1329.49 214.288C1329.1 213.872 1328.48 213.664 1327.61 213.664C1326.78 213.664 1326.14 213.856 1325.69 214.24C1325.28 214.624 1324.99 215.28 1324.83 216.208C1324.67 217.104 1324.59 218.352 1324.59 219.952V221.44ZM1340.33 238V210.256H1345.47V214.192C1346.49 212.496 1347.51 211.36 1348.54 210.784C1349.56 210.208 1350.59 209.92 1351.61 209.92C1351.74 209.92 1351.85 209.92 1351.95 209.92C1352.07 209.92 1352.23 209.936 1352.43 209.968V215.632C1352.04 215.472 1351.59 215.344 1351.08 215.248C1350.6 215.12 1350.11 215.056 1349.59 215.056C1348.79 215.056 1348.06 215.248 1347.39 215.632C1346.75 215.984 1346.11 216.688 1345.47 217.744V238H1340.33Z" fill="#4A6C7C"/>
<path d="M58.7413 527V492.152H52.1653V488.12H70.5493V492.152H64.1653V527H58.7413ZM80.9829 527.384C78.8069 527.384 77.1269 526.968 75.9429 526.136C74.7589 525.272 73.9269 524.024 73.4469 522.392C72.9989 520.728 72.7749 518.696 72.7749 516.296V509.96C72.7749 507.496 73.0149 505.448 73.4949 503.816C73.9749 502.184 74.8069 500.952 75.9909 500.12C77.2069 499.288 78.8709 498.872 80.9829 498.872C83.3189 498.872 85.0309 499.352 86.1189 500.312C87.2389 501.272 87.9749 502.664 88.3269 504.488C88.6789 506.28 88.8549 508.44 88.8549 510.968V513.224H77.9109V518.792C77.9109 519.912 78.0069 520.824 78.1989 521.528C78.4229 522.232 78.7589 522.76 79.2069 523.112C79.6869 523.432 80.2949 523.592 81.0309 523.592C81.7989 523.592 82.3749 523.416 82.7589 523.064C83.1749 522.68 83.4469 522.152 83.5749 521.48C83.7349 520.776 83.8149 519.96 83.8149 519.032V517.352H88.8069V518.408C88.8069 521.192 88.2149 523.384 87.0309 524.984C85.8469 526.584 83.8309 527.384 80.9829 527.384ZM77.9109 510.44H83.8149V507.944C83.8149 506.792 83.7509 505.832 83.6229 505.064C83.4949 504.264 83.2229 503.672 82.8069 503.288C82.4229 502.872 81.7989 502.664 80.9349 502.664C80.1029 502.664 79.4629 502.856 79.0149 503.24C78.5989 503.624 78.3109 504.28 78.1509 505.208C77.9909 506.104 77.9109 507.352 77.9109 508.952V510.44ZM91.3461 527L97.5861 512.408L91.4901 499.256H96.3861L100.466 508.04L104.066 499.256H109.106L102.77 513.032L109.202 527H104.306L99.9381 517.592L96.1941 527H91.3461ZM119.554 527.384C118.114 527.384 116.946 527.112 116.05 526.568C115.186 526.024 114.546 525.256 114.13 524.264C113.746 523.272 113.554 522.104 113.554 520.76V502.664H110.626V499.256H113.554V491.144H118.69V499.256H123.154V502.664H118.69V520.424C118.69 521.512 118.866 522.296 119.218 522.776C119.57 523.224 120.242 523.448 121.234 523.448C121.49 523.448 121.778 523.432 122.098 523.4C122.45 523.368 122.786 523.336 123.106 523.304V527.096C122.466 527.192 121.874 527.256 121.33 527.288C120.786 527.352 120.194 527.384 119.554 527.384ZM138.233 527L138.953 488.12H144.281L151.145 519.656L158.057 488.12H163.337L164.057 527H159.689L159.257 498.776L152.681 527H149.609L143.081 498.776L142.649 527H138.233ZM174.576 527.384C173.488 527.384 172.528 527.08 171.696 526.472C170.864 525.832 170.208 525.032 169.728 524.072C169.248 523.08 169.008 522.04 169.008 520.952C169.008 519.224 169.296 517.768 169.872 516.584C170.448 515.4 171.232 514.408 172.224 513.608C173.248 512.776 174.416 512.056 175.728 511.448C177.072 510.84 178.48 510.248 179.952 509.672V507.704C179.952 506.584 179.888 505.656 179.76 504.92C179.632 504.184 179.36 503.64 178.944 503.288C178.56 502.904 177.968 502.712 177.168 502.712C176.464 502.712 175.888 502.872 175.44 503.192C175.024 503.512 174.72 503.976 174.528 504.584C174.336 505.16 174.24 505.848 174.24 506.648V508.04L169.152 507.848C169.216 504.776 169.92 502.52 171.264 501.08C172.608 499.608 174.688 498.872 177.504 498.872C180.256 498.872 182.208 499.624 183.36 501.128C184.512 502.632 185.088 504.808 185.088 507.656V520.328C185.088 521.192 185.104 522.024 185.136 522.824C185.2 523.624 185.264 524.376 185.328 525.08C185.424 525.752 185.504 526.392 185.568 527H180.864C180.768 526.488 180.64 525.848 180.48 525.08C180.352 524.28 180.256 523.56 180.192 522.92C179.872 524.008 179.248 525.032 178.32 525.992C177.424 526.92 176.176 527.384 174.576 527.384ZM176.592 522.968C177.104 522.968 177.584 522.824 178.032 522.536C178.48 522.248 178.88 521.928 179.232 521.576C179.584 521.192 179.824 520.888 179.952 520.664V512.792C179.152 513.24 178.4 513.688 177.696 514.136C176.992 514.584 176.368 515.064 175.824 515.576C175.312 516.056 174.896 516.616 174.576 517.256C174.288 517.864 174.144 518.568 174.144 519.368C174.144 520.488 174.352 521.368 174.768 522.008C175.184 522.648 175.792 522.968 176.592 522.968ZM197.222 535.592C195.558 535.592 194.054 535.416 192.71 535.064C191.366 534.712 190.31 534.152 189.542 533.384C188.774 532.616 188.39 531.608 188.39 530.36C188.39 529.464 188.582 528.68 188.966 528.008C189.35 527.336 189.846 526.76 190.454 526.28C191.062 525.768 191.702 525.352 192.374 525.032C191.478 524.776 190.806 524.376 190.358 523.832C189.91 523.256 189.686 522.664 189.686 522.056C189.686 521.032 189.958 520.152 190.502 519.416C191.046 518.68 191.798 517.88 192.758 517.016C191.702 516.216 190.902 515.192 190.358 513.944C189.814 512.696 189.542 510.968 189.542 508.76C189.542 506.584 189.83 504.776 190.406 503.336C191.014 501.864 191.894 500.76 193.046 500.024C194.23 499.256 195.67 498.872 197.366 498.872C198.87 498.872 200.07 499.128 200.966 499.64C201.894 500.152 202.598 500.92 203.078 501.944C203.238 501.688 203.67 501.256 204.374 500.648C205.078 500.008 205.894 499.48 206.822 499.064L207.59 498.728L208.886 502.04C208.47 502.104 207.91 502.264 207.206 502.52C206.534 502.744 205.894 502.984 205.286 503.24C204.71 503.464 204.342 503.656 204.182 503.816C204.406 504.36 204.598 505.144 204.758 506.168C204.95 507.192 205.046 508.104 205.046 508.904C205.046 510.792 204.806 512.456 204.326 513.896C203.846 515.336 203.046 516.472 201.926 517.304C200.838 518.104 199.318 518.504 197.366 518.504C196.95 518.504 196.502 518.472 196.022 518.408C195.542 518.344 195.11 518.264 194.726 518.168C194.534 518.456 194.326 518.792 194.102 519.176C193.91 519.56 193.814 519.928 193.814 520.28C193.814 520.632 193.99 520.92 194.342 521.144C194.726 521.336 195.318 521.464 196.118 521.528L200.438 521.912C202.614 522.104 204.23 522.76 205.286 523.88C206.342 525 206.87 526.6 206.87 528.68C206.87 530.184 206.518 531.448 205.814 532.472C205.11 533.528 204.038 534.312 202.598 534.824C201.19 535.336 199.398 535.592 197.222 535.592ZM197.606 531.56C199.43 531.56 200.774 531.336 201.638 530.888C202.502 530.472 202.934 529.784 202.934 528.824C202.934 528.248 202.822 527.768 202.598 527.384C202.406 527 202.038 526.696 201.494 526.472C200.95 526.248 200.166 526.088 199.142 525.992L194.774 525.608C194.422 525.96 194.086 526.312 193.766 526.664C193.446 527.016 193.19 527.384 192.998 527.768C192.806 528.184 192.71 528.616 192.71 529.064C192.71 529.896 193.062 530.52 193.766 530.936C194.47 531.352 195.75 531.56 197.606 531.56ZM197.366 514.904C198.102 514.904 198.678 514.776 199.094 514.52C199.542 514.232 199.878 513.832 200.102 513.32C200.326 512.776 200.47 512.12 200.534 511.352C200.63 510.584 200.678 509.72 200.678 508.76C200.678 507.8 200.63 506.936 200.534 506.168C200.47 505.368 200.326 504.696 200.102 504.152C199.91 503.576 199.59 503.144 199.142 502.856C198.726 502.568 198.15 502.424 197.414 502.424C196.71 502.424 196.118 502.568 195.638 502.856C195.19 503.144 194.854 503.56 194.63 504.104C194.406 504.616 194.246 505.272 194.15 506.072C194.054 506.84 194.006 507.736 194.006 508.76C194.006 509.624 194.038 510.44 194.102 511.208C194.198 511.944 194.358 512.584 194.582 513.128C194.838 513.672 195.19 514.104 195.638 514.424C196.086 514.744 196.662 514.904 197.366 514.904ZM210.881 527V499.256H216.017V501.992C216.945 501.128 217.969 500.392 219.089 499.784C220.209 499.176 221.441 498.872 222.785 498.872C223.905 498.872 224.753 499.16 225.329 499.736C225.937 500.312 226.353 501.032 226.577 501.896C226.833 502.76 226.961 503.64 226.961 504.536V527H221.825V506.024C221.825 505.032 221.681 504.264 221.393 503.72C221.105 503.176 220.513 502.904 219.617 502.904C219.041 502.904 218.433 503.08 217.793 503.432C217.185 503.752 216.593 504.152 216.017 504.632V527H210.881ZM232.311 527V499.256H237.447V527H232.311ZM232.311 495.128V489.752H237.447V495.128H232.311ZM244.576 527V503.048H241.264V499.256H244.576V497.816C244.576 495.96 244.768 494.424 245.152 493.208C245.568 491.992 246.256 491.08 247.216 490.472C248.176 489.864 249.488 489.56 251.152 489.56C251.568 489.56 252 489.576 252.448 489.608C252.928 489.64 253.424 489.688 253.936 489.752V493.592C253.616 493.528 253.296 493.48 252.976 493.448C252.688 493.416 252.416 493.4 252.16 493.4C251.168 493.4 250.512 493.672 250.192 494.216C249.872 494.76 249.712 495.672 249.712 496.952V499.256H261.04V527H255.904V503.048H249.712V527H244.576ZM256.384 495.128V489.752H261.088V495.128H256.384ZM274.202 527.384C272.026 527.384 270.346 526.968 269.162 526.136C267.978 525.272 267.146 524.024 266.666 522.392C266.218 520.728 265.994 518.696 265.994 516.296V509.96C265.994 507.496 266.234 505.448 266.714 503.816C267.194 502.184 268.026 500.952 269.21 500.12C270.426 499.288 272.09 498.872 274.202 498.872C276.538 498.872 278.25 499.352 279.338 500.312C280.458 501.272 281.194 502.664 281.546 504.488C281.898 506.28 282.074 508.44 282.074 510.968V513.224H271.13V518.792C271.13 519.912 271.226 520.824 271.418 521.528C271.642 522.232 271.978 522.76 272.426 523.112C272.906 523.432 273.514 523.592 274.25 523.592C275.018 523.592 275.594 523.416 275.978 523.064C276.394 522.68 276.666 522.152 276.794 521.48C276.954 520.776 277.034 519.96 277.034 519.032V517.352H282.026V518.408C282.026 521.192 281.434 523.384 280.25 524.984C279.066 526.584 277.05 527.384 274.202 527.384ZM271.13 510.44H277.034V507.944C277.034 506.792 276.97 505.832 276.842 505.064C276.714 504.264 276.442 503.672 276.026 503.288C275.642 502.872 275.018 502.664 274.154 502.664C273.322 502.664 272.682 502.856 272.234 503.24C271.818 503.624 271.53 504.28 271.37 505.208C271.21 506.104 271.13 507.352 271.13 508.952V510.44ZM286.869 527V499.256H292.005V503.192C293.029 501.496 294.053 500.36 295.077 499.784C296.101 499.208 297.125 498.92 298.149 498.92C298.277 498.92 298.389 498.92 298.485 498.92C298.613 498.92 298.773 498.936 298.965 498.968V504.632C298.581 504.472 298.133 504.344 297.621 504.248C297.141 504.12 296.645 504.056 296.133 504.056C295.333 504.056 294.597 504.248 293.925 504.632C293.285 504.984 292.645 505.688 292.005 506.744V527H286.869Z" fill="#4A6C7C"/>
<path d="M568.977 527V488.12H584.001V492.008H574.401V504.968H581.841V508.808H574.401V527H568.977ZM592.287 527.384C591.199 527.384 590.239 527.08 589.407 526.472C588.575 525.832 587.919 525.032 587.439 524.072C586.959 523.08 586.719 522.04 586.719 520.952C586.719 519.224 587.007 517.768 587.583 516.584C588.159 515.4 588.943 514.408 589.935 513.608C590.959 512.776 592.127 512.056 593.439 511.448C594.783 510.84 596.191 510.248 597.663 509.672V507.704C597.663 506.584 597.599 505.656 597.471 504.92C597.343 504.184 597.071 503.64 596.655 503.288C596.271 502.904 595.679 502.712 594.879 502.712C594.175 502.712 593.599 502.872 593.151 503.192C592.735 503.512 592.431 503.976 592.239 504.584C592.047 505.16 591.951 505.848 591.951 506.648V508.04L586.863 507.848C586.927 504.776 587.631 502.52 588.975 501.08C590.319 499.608 592.399 498.872 595.215 498.872C597.967 498.872 599.919 499.624 601.071 501.128C602.223 502.632 602.799 504.808 602.799 507.656V520.328C602.799 521.192 602.815 522.024 602.847 522.824C602.911 523.624 602.975 524.376 603.039 525.08C603.135 525.752 603.215 526.392 603.279 527H598.575C598.479 526.488 598.351 525.848 598.191 525.08C598.063 524.28 597.967 523.56 597.903 522.92C597.583 524.008 596.959 525.032 596.031 525.992C595.135 526.92 593.887 527.384 592.287 527.384ZM594.303 522.968C594.815 522.968 595.295 522.824 595.743 522.536C596.191 522.248 596.591 521.928 596.943 521.576C597.295 521.192 597.535 520.888 597.663 520.664V512.792C596.863 513.24 596.111 513.688 595.407 514.136C594.703 514.584 594.079 515.064 593.535 515.576C593.023 516.056 592.607 516.616 592.287 517.256C591.999 517.864 591.855 518.568 591.855 519.368C591.855 520.488 592.063 521.368 592.479 522.008C592.895 522.648 593.503 522.968 594.303 522.968ZM611.333 527L605.861 499.256H611.045L614.453 521.576L617.909 499.256H622.901L617.621 527H611.333ZM633.833 527.384C631.785 527.384 630.169 526.968 628.985 526.136C627.801 525.304 626.953 524.12 626.441 522.584C625.961 521.048 625.721 519.24 625.721 517.16V509.096C625.721 507.016 625.961 505.208 626.441 503.672C626.953 502.136 627.801 500.952 628.985 500.12C630.169 499.288 631.785 498.872 633.833 498.872C635.881 498.872 637.481 499.288 638.633 500.12C639.817 500.952 640.649 502.136 641.129 503.672C641.641 505.208 641.897 507.016 641.897 509.096V517.16C641.897 519.24 641.641 521.048 641.129 522.584C640.649 524.12 639.817 525.304 638.633 526.136C637.481 526.968 635.881 527.384 633.833 527.384ZM633.833 523.592C634.825 523.592 635.513 523.304 635.897 522.728C636.313 522.152 636.553 521.4 636.617 520.472C636.713 519.512 636.761 518.52 636.761 517.496V508.808C636.761 507.752 636.713 506.76 636.617 505.832C636.553 504.904 636.313 504.152 635.897 503.576C635.513 502.968 634.825 502.664 633.833 502.664C632.841 502.664 632.137 502.968 631.721 503.576C631.305 504.152 631.049 504.904 630.953 505.832C630.889 506.76 630.857 507.752 630.857 508.808V517.496C630.857 518.52 630.889 519.512 630.953 520.472C631.049 521.4 631.305 522.152 631.721 522.728C632.137 523.304 632.841 523.592 633.833 523.592ZM646.736 527V499.256H651.872V503.192C652.896 501.496 653.92 500.36 654.944 499.784C655.968 499.208 656.992 498.92 658.016 498.92C658.144 498.92 658.256 498.92 658.352 498.92C658.48 498.92 658.64 498.936 658.832 498.968V504.632C658.448 504.472 658 504.344 657.488 504.248C657.008 504.12 656.512 504.056 656 504.056C655.2 504.056 654.464 504.248 653.792 504.632C653.152 504.984 652.512 505.688 651.872 506.744V527H646.736ZM662.35 527V499.256H667.486V527H662.35ZM662.35 495.128V489.752H667.486V495.128H662.35ZM680.375 527.384C678.935 527.384 677.767 527.112 676.871 526.568C676.007 526.024 675.367 525.256 674.951 524.264C674.567 523.272 674.375 522.104 674.375 520.76V502.664H671.447V499.256H674.375V491.144H679.511V499.256H683.975V502.664H679.511V520.424C679.511 521.512 679.687 522.296 680.039 522.776C680.391 523.224 681.063 523.448 682.055 523.448C682.311 523.448 682.599 523.432 682.919 523.4C683.271 523.368 683.607 523.336 683.927 523.304V527.096C683.287 527.192 682.695 527.256 682.151 527.288C681.607 527.352 681.015 527.384 680.375 527.384ZM695.428 527.384C693.252 527.384 691.572 526.968 690.388 526.136C689.204 525.272 688.372 524.024 687.892 522.392C687.444 520.728 687.22 518.696 687.22 516.296V509.96C687.22 507.496 687.46 505.448 687.94 503.816C688.42 502.184 689.252 500.952 690.436 500.12C691.652 499.288 693.316 498.872 695.428 498.872C697.764 498.872 699.476 499.352 700.564 500.312C701.684 501.272 702.42 502.664 702.772 504.488C703.124 506.28 703.3 508.44 703.3 510.968V513.224H692.356V518.792C692.356 519.912 692.452 520.824 692.644 521.528C692.868 522.232 693.204 522.76 693.652 523.112C694.132 523.432 694.74 523.592 695.476 523.592C696.244 523.592 696.82 523.416 697.204 523.064C697.62 522.68 697.892 522.152 698.02 521.48C698.18 520.776 698.26 519.96 698.26 519.032V517.352H703.252V518.408C703.252 521.192 702.66 523.384 701.476 524.984C700.292 526.584 698.276 527.384 695.428 527.384ZM692.356 510.44H698.26V507.944C698.26 506.792 698.196 505.832 698.068 505.064C697.94 504.264 697.668 503.672 697.252 503.288C696.868 502.872 696.244 502.664 695.38 502.664C694.548 502.664 693.908 502.856 693.46 503.24C693.044 503.624 692.756 504.28 692.596 505.208C692.436 506.104 692.356 507.352 692.356 508.952V510.44ZM714.383 527.384C712.111 527.384 710.287 526.68 708.911 525.272C707.535 523.832 706.751 521.944 706.559 519.608L710.831 518.312C711.087 520.072 711.519 521.4 712.127 522.296C712.735 523.16 713.631 523.592 714.815 523.592C715.743 523.592 716.447 523.336 716.927 522.824C717.407 522.28 717.647 521.56 717.647 520.664C717.647 519.864 717.471 519.144 717.119 518.504C716.767 517.864 716.191 517.208 715.391 516.536L710.639 512.456C709.679 511.624 708.863 510.696 708.191 509.672C707.551 508.648 707.231 507.32 707.231 505.688C707.231 504.216 707.519 502.984 708.095 501.992C708.703 500.968 709.535 500.2 710.591 499.688C711.679 499.144 712.943 498.872 714.383 498.872C716.591 498.872 718.271 499.592 719.423 501.032C720.607 502.44 721.279 504.152 721.439 506.168L717.983 507.464C717.855 506.504 717.663 505.672 717.407 504.968C717.151 504.232 716.799 503.672 716.351 503.288C715.903 502.872 715.311 502.664 714.575 502.664C713.743 502.664 713.071 502.952 712.559 503.528C712.079 504.072 711.839 504.728 711.839 505.496C711.839 505.976 711.935 506.456 712.127 506.936C712.351 507.384 712.719 507.832 713.231 508.28L718.127 512.792C718.799 513.4 719.423 514.056 719.999 514.76C720.607 515.464 721.103 516.264 721.487 517.16C721.871 518.056 722.063 519.096 722.063 520.28C722.063 521.848 721.743 523.16 721.103 524.216C720.463 525.272 719.567 526.072 718.415 526.616C717.263 527.128 715.919 527.384 714.383 527.384ZM737.305 527V488.12H742.729V523.112H752.665V527H737.305ZM756.287 527V499.256H761.423V527H756.287ZM756.287 495.128V489.752H761.423V495.128H756.287ZM773.352 527.384C771.08 527.384 769.256 526.68 767.88 525.272C766.504 523.832 765.72 521.944 765.528 519.608L769.8 518.312C770.056 520.072 770.488 521.4 771.096 522.296C771.704 523.16 772.6 523.592 773.784 523.592C774.712 523.592 775.416 523.336 775.896 522.824C776.376 522.28 776.616 521.56 776.616 520.664C776.616 519.864 776.44 519.144 776.088 518.504C775.736 517.864 775.16 517.208 774.36 516.536L769.608 512.456C768.648 511.624 767.832 510.696 767.16 509.672C766.52 508.648 766.2 507.32 766.2 505.688C766.2 504.216 766.488 502.984 767.064 501.992C767.672 500.968 768.504 500.2 769.56 499.688C770.648 499.144 771.912 498.872 773.352 498.872C775.56 498.872 777.24 499.592 778.392 501.032C779.576 502.44 780.248 504.152 780.408 506.168L776.952 507.464C776.824 506.504 776.632 505.672 776.376 504.968C776.12 504.232 775.768 503.672 775.32 503.288C774.872 502.872 774.28 502.664 773.544 502.664C772.712 502.664 772.04 502.952 771.528 503.528C771.048 504.072 770.808 504.728 770.808 505.496C770.808 505.976 770.904 506.456 771.096 506.936C771.32 507.384 771.688 507.832 772.2 508.28L777.096 512.792C777.768 513.4 778.392 514.056 778.968 514.76C779.576 515.464 780.072 516.264 780.456 517.16C780.84 518.056 781.032 519.096 781.032 520.28C781.032 521.848 780.712 523.16 780.072 524.216C779.432 525.272 778.536 526.072 777.384 526.616C776.232 527.128 774.888 527.384 773.352 527.384ZM792.265 527.384C790.825 527.384 789.657 527.112 788.761 526.568C787.897 526.024 787.257 525.256 786.841 524.264C786.457 523.272 786.265 522.104 786.265 520.76V502.664H783.337V499.256H786.265V491.144H791.401V499.256H795.865V502.664H791.401V520.424C791.401 521.512 791.577 522.296 791.929 522.776C792.281 523.224 792.953 523.448 793.945 523.448C794.201 523.448 794.489 523.432 794.809 523.4C795.161 523.368 795.497 523.336 795.817 523.304V527.096C795.177 527.192 794.585 527.256 794.041 527.288C793.497 527.352 792.905 527.384 792.265 527.384Z" fill="#4A6C7C"/>
<path d="M1020.41 527L1021.13 488.12H1026.46L1033.32 519.656L1040.24 488.12H1045.52L1046.24 527H1041.87L1041.44 498.776L1034.86 527H1031.79L1025.26 498.776L1024.83 527H1020.41ZM1059.4 527.384C1057.35 527.384 1055.73 526.968 1054.55 526.136C1053.36 525.304 1052.52 524.12 1052 522.584C1051.52 521.048 1051.28 519.24 1051.28 517.16V509.096C1051.28 507.016 1051.52 505.208 1052 503.672C1052.52 502.136 1053.36 500.952 1054.55 500.12C1055.73 499.288 1057.35 498.872 1059.4 498.872C1061.44 498.872 1063.04 499.288 1064.2 500.12C1065.38 500.952 1066.21 502.136 1066.69 503.672C1067.2 505.208 1067.46 507.016 1067.46 509.096V517.16C1067.46 519.24 1067.2 521.048 1066.69 522.584C1066.21 524.12 1065.38 525.304 1064.2 526.136C1063.04 526.968 1061.44 527.384 1059.4 527.384ZM1059.4 523.592C1060.39 523.592 1061.08 523.304 1061.46 522.728C1061.88 522.152 1062.12 521.4 1062.18 520.472C1062.28 519.512 1062.32 518.52 1062.32 517.496V508.808C1062.32 507.752 1062.28 506.76 1062.18 505.832C1062.12 504.904 1061.88 504.152 1061.46 503.576C1061.08 502.968 1060.39 502.664 1059.4 502.664C1058.4 502.664 1057.7 502.968 1057.28 503.576C1056.87 504.152 1056.61 504.904 1056.52 505.832C1056.45 506.76 1056.42 507.752 1056.42 508.808V517.496C1056.42 518.52 1056.45 519.512 1056.52 520.472C1056.61 521.4 1056.87 522.152 1057.28 522.728C1057.7 523.304 1058.4 523.592 1059.4 523.592ZM1072.15 527V499.256H1077.29V501.992C1078.22 501.128 1079.24 500.392 1080.36 499.784C1081.48 499.176 1082.71 498.872 1084.06 498.872C1085.18 498.872 1086.03 499.16 1086.6 499.736C1087.21 500.312 1087.63 501.032 1087.85 501.896C1088.11 502.76 1088.23 503.64 1088.23 504.536V527H1083.1V506.024C1083.1 505.032 1082.95 504.264 1082.67 503.72C1082.38 503.176 1081.79 502.904 1080.89 502.904C1080.31 502.904 1079.71 503.08 1079.07 503.432C1078.46 503.752 1077.87 504.152 1077.29 504.632V527H1072.15ZM1100.64 527.384C1099.2 527.384 1098.03 527.112 1097.14 526.568C1096.27 526.024 1095.63 525.256 1095.22 524.264C1094.83 523.272 1094.64 522.104 1094.64 520.76V502.664H1091.71V499.256H1094.64V491.144H1099.78V499.256H1104.24V502.664H1099.78V520.424C1099.78 521.512 1099.95 522.296 1100.3 522.776C1100.66 523.224 1101.33 523.448 1102.32 523.448C1102.58 523.448 1102.86 523.432 1103.18 523.4C1103.54 523.368 1103.87 523.336 1104.19 523.304V527.096C1103.55 527.192 1102.96 527.256 1102.42 527.288C1101.87 527.352 1101.28 527.384 1100.64 527.384ZM1108.16 527V488.12H1113.29V502.136C1114.22 501.24 1115.26 500.472 1116.41 499.832C1117.57 499.192 1118.85 498.872 1120.25 498.872C1121.34 498.872 1122.17 499.16 1122.75 499.736C1123.36 500.312 1123.77 501.032 1124 501.896C1124.25 502.76 1124.38 503.64 1124.38 504.536V527H1119.25V506.024C1119.25 505.032 1119.1 504.264 1118.81 503.72C1118.53 503.176 1117.93 502.904 1117.04 502.904C1116.43 502.904 1115.79 503.08 1115.12 503.432C1114.48 503.784 1113.87 504.216 1113.29 504.728V527H1108.16ZM1129.87 527V488.12H1135V527H1129.87ZM1139.93 533.96V530.024C1141.17 530.024 1142.17 529.96 1142.9 529.832C1143.64 529.736 1144.17 529.528 1144.49 529.208C1144.81 528.92 1144.97 528.504 1144.97 527.96C1144.97 527.672 1144.85 527.032 1144.63 526.04C1144.41 525.048 1144.17 523.992 1143.91 522.872L1138.34 499.256H1143.53L1147.27 519.992L1150.87 499.256H1156.05L1149.43 528.536C1149.14 529.88 1148.61 530.936 1147.85 531.704C1147.08 532.504 1146.09 533.08 1144.87 533.432C1143.69 533.784 1142.25 533.96 1140.55 533.96H1139.93ZM1177.32 527L1168.64 488.12H1173.72L1179.87 516.776L1185.72 488.12H1190.67L1182.08 527H1177.32ZM1201.52 527.384C1199.47 527.384 1197.86 526.968 1196.67 526.136C1195.49 525.304 1194.64 524.12 1194.13 522.584C1193.65 521.048 1193.41 519.24 1193.41 517.16V509.096C1193.41 507.016 1193.65 505.208 1194.13 503.672C1194.64 502.136 1195.49 500.952 1196.67 500.12C1197.86 499.288 1199.47 498.872 1201.52 498.872C1203.57 498.872 1205.17 499.288 1206.32 500.12C1207.5 500.952 1208.34 502.136 1208.82 503.672C1209.33 505.208 1209.58 507.016 1209.58 509.096V517.16C1209.58 519.24 1209.33 521.048 1208.82 522.584C1208.34 524.12 1207.5 525.304 1206.32 526.136C1205.17 526.968 1203.57 527.384 1201.52 527.384ZM1201.52 523.592C1202.51 523.592 1203.2 523.304 1203.58 522.728C1204 522.152 1204.24 521.4 1204.3 520.472C1204.4 519.512 1204.45 518.52 1204.45 517.496V508.808C1204.45 507.752 1204.4 506.76 1204.3 505.832C1204.24 504.904 1204 504.152 1203.58 503.576C1203.2 502.968 1202.51 502.664 1201.52 502.664C1200.53 502.664 1199.82 502.968 1199.41 503.576C1198.99 504.152 1198.74 504.904 1198.64 505.832C1198.58 506.76 1198.54 507.752 1198.54 508.808V517.496C1198.54 518.52 1198.58 519.512 1198.64 520.472C1198.74 521.4 1198.99 522.152 1199.41 522.728C1199.82 523.304 1200.53 523.592 1201.52 523.592ZM1218.26 527.384C1217.18 527.384 1216.33 527.096 1215.72 526.52C1215.11 525.944 1214.68 525.224 1214.42 524.36C1214.2 523.496 1214.09 522.616 1214.09 521.72V499.256H1219.22V520.184C1219.22 521.176 1219.37 521.96 1219.66 522.536C1219.94 523.08 1220.54 523.352 1221.43 523.352C1222.01 523.352 1222.6 523.192 1223.21 522.872C1223.85 522.52 1224.46 522.104 1225.03 521.624V499.256H1230.17V527H1225.03V524.264C1224.14 525.128 1223.11 525.864 1221.96 526.472C1220.84 527.08 1219.61 527.384 1218.26 527.384ZM1243 527.384C1240.73 527.384 1239 526.936 1237.82 526.04C1236.67 525.112 1235.88 523.816 1235.47 522.152C1235.08 520.488 1234.89 518.552 1234.89 516.344V509.96C1234.89 507.624 1235.1 505.64 1235.52 504.008C1235.93 502.344 1236.72 501.08 1237.87 500.216C1239.05 499.32 1240.76 498.872 1243 498.872C1245.02 498.872 1246.57 499.208 1247.66 499.88C1248.78 500.52 1249.55 501.496 1249.96 502.808C1250.38 504.088 1250.59 505.688 1250.59 507.608V509.24H1245.93V507.56C1245.93 506.344 1245.85 505.384 1245.69 504.68C1245.53 503.976 1245.24 503.464 1244.83 503.144C1244.41 502.824 1243.82 502.664 1243.05 502.664C1242.22 502.664 1241.58 502.856 1241.13 503.24C1240.68 503.624 1240.38 504.28 1240.22 505.208C1240.09 506.104 1240.03 507.336 1240.03 508.904V517.64C1240.03 520.008 1240.25 521.592 1240.7 522.392C1241.15 523.192 1241.95 523.592 1243.1 523.592C1243.96 523.592 1244.59 523.4 1244.97 523.016C1245.39 522.6 1245.64 522.024 1245.74 521.288C1245.87 520.552 1245.93 519.72 1245.93 518.792V516.536H1250.59V518.456C1250.59 520.312 1250.36 521.912 1249.92 523.256C1249.5 524.6 1248.73 525.624 1247.61 526.328C1246.52 527.032 1244.99 527.384 1243 527.384ZM1255.3 527V488.12H1260.43V502.136C1261.36 501.24 1262.4 500.472 1263.55 499.832C1264.71 499.192 1265.99 498.872 1267.39 498.872C1268.48 498.872 1269.31 499.16 1269.89 499.736C1270.5 500.312 1270.91 501.032 1271.14 501.896C1271.39 502.76 1271.52 503.64 1271.52 504.536V527H1266.39V506.024C1266.39 505.032 1266.24 504.264 1265.95 503.72C1265.67 503.176 1265.07 502.904 1264.18 502.904C1263.57 502.904 1262.93 503.08 1262.26 503.432C1261.62 503.784 1261.01 504.216 1260.43 504.728V527H1255.3ZM1284.21 527.384C1282.03 527.384 1280.35 526.968 1279.17 526.136C1277.99 525.272 1277.15 524.024 1276.67 522.392C1276.23 520.728 1276 518.696 1276 516.296V509.96C1276 507.496 1276.24 505.448 1276.72 503.816C1277.2 502.184 1278.03 500.952 1279.22 500.12C1280.43 499.288 1282.1 498.872 1284.21 498.872C1286.55 498.872 1288.26 499.352 1289.35 500.312C1290.47 501.272 1291.2 502.664 1291.55 504.488C1291.91 506.28 1292.08 508.44 1292.08 510.968V513.224H1281.14V518.792C1281.14 519.912 1281.23 520.824 1281.43 521.528C1281.65 522.232 1281.99 522.76 1282.43 523.112C1282.91 523.432 1283.52 523.592 1284.26 523.592C1285.03 523.592 1285.6 523.416 1285.99 523.064C1286.4 522.68 1286.67 522.152 1286.8 521.48C1286.96 520.776 1287.04 519.96 1287.04 519.032V517.352H1292.03V518.408C1292.03 521.192 1291.44 523.384 1290.26 524.984C1289.07 526.584 1287.06 527.384 1284.21 527.384ZM1281.14 510.44H1287.04V507.944C1287.04 506.792 1286.98 505.832 1286.85 505.064C1286.72 504.264 1286.45 503.672 1286.03 503.288C1285.65 502.872 1285.03 502.664 1284.16 502.664C1283.33 502.664 1282.69 502.856 1282.24 503.24C1281.83 503.624 1281.54 504.28 1281.38 505.208C1281.22 506.104 1281.14 507.352 1281.14 508.952V510.44ZM1296.88 527V499.256H1302.01V503.192C1303.04 501.496 1304.06 500.36 1305.08 499.784C1306.11 499.208 1307.13 498.92 1308.16 498.92C1308.28 498.92 1308.4 498.92 1308.49 498.92C1308.62 498.92 1308.78 498.936 1308.97 498.968V504.632C1308.59 504.472 1308.14 504.344 1307.63 504.248C1307.15 504.12 1306.65 504.056 1306.14 504.056C1305.34 504.056 1304.6 504.248 1303.93 504.632C1303.29 504.984 1302.65 505.688 1302.01 506.744V527H1296.88ZM1318.59 527.384C1316.31 527.384 1314.49 526.68 1313.11 525.272C1311.74 523.832 1310.95 521.944 1310.76 519.608L1315.03 518.312C1315.29 520.072 1315.72 521.4 1316.33 522.296C1316.94 523.16 1317.83 523.592 1319.02 523.592C1319.95 523.592 1320.65 523.336 1321.13 522.824C1321.61 522.28 1321.85 521.56 1321.85 520.664C1321.85 519.864 1321.67 519.144 1321.32 518.504C1320.97 517.864 1320.39 517.208 1319.59 516.536L1314.84 512.456C1313.88 511.624 1313.07 510.696 1312.39 509.672C1311.75 508.648 1311.43 507.32 1311.43 505.688C1311.43 504.216 1311.72 502.984 1312.3 501.992C1312.91 500.968 1313.74 500.2 1314.79 499.688C1315.88 499.144 1317.15 498.872 1318.59 498.872C1320.79 498.872 1322.47 499.592 1323.63 501.032C1324.81 502.44 1325.48 504.152 1325.64 506.168L1322.19 507.464C1322.06 506.504 1321.87 505.672 1321.61 504.968C1321.35 504.232 1321 503.672 1320.55 503.288C1320.11 502.872 1319.51 502.664 1318.78 502.664C1317.95 502.664 1317.27 502.952 1316.76 503.528C1316.28 504.072 1316.04 504.728 1316.04 505.496C1316.04 505.976 1316.14 506.456 1316.33 506.936C1316.55 507.384 1316.92 507.832 1317.43 508.28L1322.33 512.792C1323 513.4 1323.63 514.056 1324.2 514.76C1324.81 515.464 1325.31 516.264 1325.69 517.16C1326.07 518.056 1326.27 519.096 1326.27 520.28C1326.27 521.848 1325.95 523.16 1325.31 524.216C1324.67 525.272 1323.77 526.072 1322.62 526.616C1321.47 527.128 1320.12 527.384 1318.59 527.384Z" fill="#4A6C7C"/>
</g>
<defs>
<clipPath id="clip0_743_57">
<rect width="1505" height="723" fill="white"/>
</clipPath>
</defs>
</svg>
